<svg width="100%" height="100%" viewBox="0 0 108 108" version="1.1" xmlns="http://www.w3.org/2000/svg" xmlns:xlink="http://www.w3.org/1999/xlink" xml:space="preserve" fill-rule="evenodd" clip-rule="evenodd" stroke-linejoin="round" stroke-miterlimit="1.41421"><rect id="Icon_banana_108" x="0" y="0" width="108" height="108" fill="none"/><g id="Banana"><path d="M29.371,76.374C29.415,75.774 29.637,75.209 29.99,74.701C29.558,74.79 29.155,75.253 29.069,75.989C29.043,76.222 28.998,76.688 29.065,77.152C29.191,77.199 29.321,77.251 29.453,77.304C29.38,76.977 29.35,76.664 29.371,76.374Z" fill="#84583e" fill-rule="nonzero"/><path d="M29.453,77.304C29.859,77.47 30.295,77.665 30.766,77.894C30.816,77.544 31.247,75.15 30.474,74.763C30.319,74.685 30.153,74.667 29.99,74.701C29.637,75.209 29.415,75.774 29.371,76.374C29.35,76.664 29.38,76.977 29.453,77.304Z" fill="#84583e" fill-rule="nonzero"/><path d="M70.137,24.032C69.467,23.979 67.284,23.979 66.425,24.132C67.585,24.836 68.677,24.44 70.137,24.032Z" fill="#84583e" fill-rule="nonzero"/><path d="M70.137,24.032C70.097,25.01 70.007,25.862 69.9,26.608C70.037,25.865 70.137,25.318 70.137,24.032Z" fill="#84583e" fill-rule="nonzero"/><path d="M66.334,26.592C67.235,26.399 68.966,26.897 69.881,26.709C69.888,26.675 69.893,26.642 69.9,26.608C70.007,25.862 70.097,25.01 70.137,24.032C68.677,24.44 67.585,24.836 66.425,24.132C66.335,25.059 66.316,25.861 66.334,26.592Z" fill="#84583e" fill-rule="nonzero"/><path d="M60.845,47.629C59.747,52.882 56.149,61.864 51.677,65.278C45.083,70.304 42.576,70.426 33.747,72.396C31.498,72.876 29.511,74.444 29.371,76.374C29.21,78.584 31.915,82.147 35.726,82.93C42.666,84.288 41.336,84.086 49.043,83.76C56.76,83.427 62.87,80.849 67.286,77.324C71.75,73.751 74.518,69.232 76.701,63.925C77.262,62.252 78.582,57.884 78.9,53.089C79.011,51.422 79,49.704 78.795,48.03C78.146,41.693 76.13,35.367 70.451,32.171C68.232,30.922 69.918,29.341 70.137,24.032C68.677,24.44 67.585,24.836 66.425,24.132C65.958,28.831 67.194,29.838 65.219,33.864C63.7,36.96 61.685,43.735 60.845,47.629Z" fill="#f8cf50" fill-rule="nonzero"/><path d="M30.755,77.958C30.486,78.415 30.032,78.469 29.717,78.294C28.89,77.833 29.018,76.452 29.069,75.989C29.187,74.976 29.907,74.476 30.474,74.763C31.247,75.15 30.816,77.544 30.766,77.894C30.762,77.915 30.758,77.936 30.755,77.958Z" fill="#84583e" fill-rule="nonzero"/><path d="M66.425,24.132C66.335,25.059 66.316,25.861 66.334,26.592C67.235,26.399 68.966,26.897 69.881,26.709C70.028,25.911 70.137,25.376 70.137,24.032C69.467,23.979 67.284,23.979 66.425,24.132Z" fill="#84583e" fill-rule="nonzero"/><path d="M74.35,49.926C73.218,60.333 69.979,66.738 61.497,73.418C55.474,78.163 37.642,81.252 30.766,77.894C30.762,77.915 30.758,77.936 30.755,77.958C30.513,78.369 30.121,78.453 29.816,78.339C30.723,80.277 32.924,82.355 35.726,82.93C42.666,84.288 41.336,84.086 49.043,83.76C56.76,83.427 62.87,80.849 67.286,77.324C71.75,73.751 74.518,69.232 76.701,63.925C77.457,61.671 79.591,54.522 78.795,48.03C78.146,41.693 76.13,35.367 70.451,32.171C70.262,32.064 70.102,31.954 69.966,31.84L69.964,31.84C69.964,31.84 75.621,38.254 74.35,49.926Z" fill="#eebe29" fill-rule="nonzero"/><path d="M66.265,57.319C66.265,59.223 64.687,60.766 62.74,60.766C60.793,60.766 59.216,59.223 59.216,57.319C59.216,55.415 60.793,53.871 62.74,53.871C64.687,53.871 66.265,55.415 66.265,57.319Z" fill="#fff" fill-rule="nonzero"/><path d="M65.951,57.319C65.951,58.849 64.683,60.089 63.119,60.089C61.554,60.089 60.287,58.849 60.287,57.319C60.287,55.788 61.554,54.548 63.119,54.548C64.683,54.548 65.951,55.788 65.951,57.319Z" fill="#4b4443" fill-rule="nonzero"/><path d="M62.623,56.481C62.623,56.943 62.239,57.319 61.766,57.319C61.293,57.319 60.91,56.943 60.91,56.481C60.91,56.018 61.293,55.643 61.766,55.643C62.239,55.643 62.623,56.018 62.623,56.481Z" fill="#fff" fill-rule="nonzero"/><path d="M68.872,57.301C68.872,59.204 70.45,60.749 72.397,60.749C74.344,60.749 75.922,59.204 75.922,57.301C75.922,55.397 74.344,53.852 72.397,53.852C70.45,53.852 68.872,55.397 68.872,57.301Z" fill="#fff" fill-rule="nonzero"/><path d="M69.304,57.319C69.304,58.865 70.587,60.119 72.167,60.119C73.749,60.119 75.031,58.865 75.031,57.319C75.031,55.772 73.749,54.518 72.167,54.518C70.587,54.518 69.304,55.772 69.304,57.319Z" fill="#4b4443" fill-rule="nonzero"/><path d="M71.677,56.481C71.677,56.943 71.294,57.319 70.821,57.319C70.347,57.319 69.964,56.943 69.964,56.481C69.964,56.018 70.347,55.643 70.821,55.643C71.294,55.643 71.677,56.018 71.677,56.481Z" fill="#fff" fill-rule="nonzero"/><path d="M65.536,61.726C65.538,61.74 65.588,62.324 65.876,62.931C66.021,63.234 66.227,63.545 66.527,63.787C66.827,64.028 67.227,64.192 67.715,64.191C68.191,64.192 68.576,64.035 68.855,63.798C69.065,63.62 69.219,63.403 69.332,63.18C69.502,62.846 69.584,62.497 69.627,62.222C69.67,61.947 69.672,61.746 69.672,61.71L69.507,61.71L69.671,61.719L69.672,61.71L69.507,61.71L69.671,61.719C69.678,61.594 69.58,61.487 69.453,61.48C69.325,61.473 69.215,61.569 69.208,61.694L69.208,61.71C69.209,61.745 69.201,62.289 69,62.793C68.901,63.045 68.755,63.284 68.552,63.454C68.349,63.624 68.091,63.735 67.715,63.737C67.33,63.736 67.05,63.617 66.821,63.435C66.65,63.299 66.511,63.123 66.399,62.933C66.231,62.648 66.129,62.332 66.071,62.089C66.041,61.968 66.023,61.865 66.012,61.794C66.007,61.758 66.003,61.73 66.001,61.712L65.998,61.691L65.998,61.687L65.998,61.686C65.987,61.561 65.874,61.469 65.747,61.48C65.619,61.491 65.525,61.601 65.536,61.726L65.536,61.726Z" fill="#4b4443" fill-rule="nonzero"/><path d="M73.359,61.597C72.623,61.602 71.889,61.443 71.319,61.979C70.178,63.051 72.309,63.236 72.969,63.237C73.57,63.237 75.394,63.313 75.576,62.533C75.801,61.559 74.016,61.651 73.521,61.591L73.359,61.597Z" fill="#f09488" fill-rule="nonzero"/><path d="M61.6,61.597C60.865,61.602 60.13,61.443 59.56,61.979C58.419,63.051 60.55,63.236 61.21,63.237C61.811,63.237 63.635,63.313 63.816,62.533C64.042,61.559 62.257,61.651 61.763,61.591L61.6,61.597Z" fill="#f09488" fill-rule="nonzero"/></g></svg>