<?xml version="1.0" encoding="UTF-8" standalone="no"?>
<!DOCTYPE svg PUBLIC "-//W3C//DTD SVG 1.1//EN" "http://www.w3.org/Graphics/SVG/1.1/DTD/svg11.dtd">
<svg width="100%" height="100%" viewBox="0 0 362 444" version="1.1" xmlns="http://www.w3.org/2000/svg"  xml:space="preserve" style="fill-rule:evenodd;clip-rule:evenodd;stroke-linejoin:round;stroke-miterlimit:1.41421;">
    <rect id="art" x="0" y="0" width="362" height="444" style="fill:none;"/>
    <g id="Banana">
        <path d="M3.053,387.282C3.368,382.848 4.973,378.673 7.522,374.92C4.404,375.576 1.493,378.996 0.868,384.438C0.682,386.156 0.353,389.596 0.842,393.024C1.75,393.377 2.688,393.757 3.643,394.152C3.113,391.735 2.899,389.422 3.053,387.282Z" style="fill:#84583e;fill-rule:nonzero;"/>
        <path d="M3.643,394.152C6.58,395.376 9.729,396.817 13.127,398.51C13.494,395.921 16.607,378.238 11.019,375.38C9.899,374.802 8.698,374.67 7.522,374.92C4.973,378.673 3.368,382.848 3.053,387.282C2.899,389.422 3.113,391.735 3.643,394.152Z" style="fill:#84583e;fill-rule:nonzero;"/>
        <path d="M297.596,0.626C292.749,0.23 276.982,0.23 270.775,1.362C279.156,6.561 287.042,3.639 297.596,0.626Z" style="fill:#84583e;fill-rule:nonzero;"/>
        <path d="M297.596,0.626C297.302,7.848 296.65,14.142 295.881,19.654C296.868,14.162 297.596,10.123 297.596,0.626Z" style="fill:#84583e;fill-rule:nonzero;"/>
        <path d="M270.118,19.535C276.624,18.106 289.131,21.788 295.747,20.398C295.794,20.148 295.833,19.901 295.881,19.654C296.65,14.142 297.302,7.848 297.596,0.626C287.042,3.639 279.156,6.561 270.775,1.362C270.124,8.207 269.986,14.133 270.118,19.535Z" style="fill:#84583e;fill-rule:nonzero;"/>
        <path d="M230.455,174.939C222.52,213.74 196.53,280.093 164.215,305.315C116.575,342.438 98.46,343.34 34.671,357.894C18.419,361.441 4.065,373.026 3.053,387.282C1.89,403.608 21.434,429.927 48.966,435.711C99.108,445.743 89.499,444.25 145.186,441.844C200.941,439.385 245.091,420.34 276.991,394.297C309.246,367.905 329.248,334.523 345.017,295.317C349.072,282.961 358.61,250.691 360.909,215.269C361.708,202.958 361.633,190.267 360.149,177.899C355.461,131.083 340.894,84.355 299.865,60.744C283.832,51.521 296.007,39.837 297.596,0.626C287.042,3.639 279.156,6.561 270.775,1.362C267.402,36.072 276.331,43.515 262.059,73.255C251.084,96.124 236.529,146.174 230.455,174.939Z" style="fill:#f8cf50;fill-rule:nonzero;"/>
        <path d="M13.048,398.98C11.107,402.357 7.823,402.754 5.552,401.465C-0.426,398.06 0.5,387.859 0.868,384.438C1.722,376.95 6.922,373.262 11.019,375.38C16.607,378.238 13.494,395.921 13.127,398.51C13.1,398.667 13.075,398.821 13.048,398.98Z" style="fill:#84583e;fill-rule:nonzero;"/>
        <path d="M270.775,1.362C270.124,8.207 269.986,14.133 270.118,19.535C276.624,18.106 289.131,21.788 295.747,20.398C296.805,14.506 297.596,10.55 297.596,0.626C292.749,0.23 276.982,0.23 270.775,1.362Z" style="fill:#84583e;fill-rule:nonzero;"/>
        <path d="M328.035,191.905C319.852,268.784 296.449,316.095 235.17,365.446C191.648,400.495 62.814,423.314 13.127,398.51C13.1,398.667 13.075,398.821 13.048,398.98C11.302,402.015 8.47,402.636 6.264,401.798C12.819,416.113 28.724,431.459 48.966,435.711C99.108,445.743 89.499,444.25 145.186,441.844C200.941,439.385 245.091,420.34 276.991,394.297C309.246,367.905 329.248,334.523 345.017,295.317C350.481,278.667 365.902,225.856 360.149,177.899C355.461,131.083 340.894,84.355 299.865,60.744C298.494,59.956 297.338,59.14 296.354,58.298L296.34,58.298C296.34,58.298 337.213,105.681 328.035,191.905Z" style="fill:#eebe29;fill-rule:nonzero;"/>
        <path d="M269.615,246.515C269.615,260.584 258.217,271.983 244.147,271.983C230.084,271.983 218.683,260.584 218.683,246.515C218.683,232.451 230.084,221.047 244.147,221.047C258.217,221.047 269.615,232.451 269.615,246.515Z" style="fill:#fff;fill-rule:nonzero;"/>
        <path d="M267.348,246.515C267.348,257.818 258.185,266.977 246.886,266.977C235.582,266.977 226.422,257.818 226.422,246.515C226.422,235.212 235.582,226.05 246.886,226.05C258.185,226.05 267.348,235.212 267.348,246.515Z" style="fill:#4b4443;fill-rule:nonzero;"/>
        <path d="M243.3,240.325C243.3,243.744 240.531,246.515 237.111,246.515C233.692,246.515 230.924,243.744 230.924,240.325C230.924,236.909 233.692,234.136 237.111,234.136C240.531,234.136 243.3,236.909 243.3,240.325Z" style="fill:#fff;fill-rule:nonzero;"/>
        <path d="M288.455,246.382C288.455,260.446 299.858,271.853 313.924,271.853C327.991,271.853 339.39,260.446 339.39,246.382C339.39,232.317 327.991,220.91 313.924,220.91C299.858,220.91 288.455,232.317 288.455,246.382Z" style="fill:#fff;fill-rule:nonzero;"/>
        <path d="M291.576,246.515C291.576,257.941 300.841,267.203 312.26,267.203C323.687,267.203 332.953,257.941 332.953,246.515C332.953,235.091 323.687,225.826 312.26,225.826C300.841,225.826 291.576,235.091 291.576,246.515Z" style="fill:#4b4443;fill-rule:nonzero;"/>
        <path d="M308.721,240.325C308.721,243.744 305.951,246.515 302.533,246.515C299.113,246.515 296.34,243.744 296.34,240.325C296.34,236.909 299.113,234.136 302.533,234.136C305.951,234.136 308.721,236.909 308.721,240.325Z" style="fill:#fff;fill-rule:nonzero;"/>
        <path d="M264.348,279.073C264.363,279.18 264.727,283.49 266.808,287.973C267.853,290.212 269.339,292.513 271.513,294.295C273.678,296.079 276.569,297.29 280.094,297.28C283.534,297.292 286.312,296.13 288.33,294.377C289.85,293.066 290.958,291.462 291.778,289.817C293.004,287.346 293.6,284.768 293.909,282.737C294.216,280.707 294.229,279.223 294.23,278.953L293.037,278.953L294.228,279.019L294.23,278.953L293.037,278.953L294.228,279.019C294.279,278.095 293.571,277.305 292.648,277.254C291.724,277.202 290.933,277.91 290.882,278.834L290.878,278.953C290.886,279.211 290.831,283.229 289.38,286.951C288.66,288.816 287.607,290.58 286.144,291.837C284.671,293.091 282.812,293.917 280.094,293.929C277.315,293.919 275.291,293.044 273.636,291.701C272.4,290.691 271.391,289.392 270.585,287.987C269.374,285.88 268.633,283.548 268.212,281.758C268.001,280.862 267.867,280.103 267.789,279.575C267.749,279.311 267.723,279.105 267.707,278.968L267.69,278.817L267.687,278.784L267.686,278.779C267.605,277.857 266.792,277.176 265.871,277.257C264.948,277.338 264.267,278.151 264.348,279.074L264.348,279.073Z" style="fill:#4b4443;fill-rule:nonzero;"/>
        <path d="M320.871,278.123C315.556,278.16 310.251,276.98 306.133,280.942C297.89,288.86 313.287,290.228 318.055,290.232C322.395,290.238 335.577,290.795 336.888,285.033C338.519,277.84 325.62,278.516 322.046,278.078L320.871,278.123Z" style="fill:#f09488;fill-rule:nonzero;"/>
        <path d="M235.909,278.123C230.598,278.16 225.291,276.98 221.173,280.942C212.929,288.86 228.327,290.228 233.095,290.232C237.432,290.238 250.617,290.795 251.924,285.033C253.556,277.84 240.659,278.516 237.088,278.078L235.909,278.123Z" style="fill:#f09488;fill-rule:nonzero;"/>
    </g>
    <g id="Strawberry">
        <path d="M183.411,237.476L183.428,237.446L182.981,237.244C158.735,226.654 135.625,228.621 124.903,256.926C147.317,272.957 170.019,259.095 183.411,237.476Z" style="fill:#a3a84d;fill-rule:nonzero;"/>
        <path d="M183.411,237.476C167.926,247.356 146.713,256.206 124.903,256.926C147.317,272.957 170.019,259.095 183.411,237.476Z" style="fill:#8c8c43;fill-rule:nonzero;"/>
        <path d="M82.065,188.06L82.07,188.035L82.514,188.245C106.035,200.374 119.088,219.546 103.898,245.72C77.314,238.449 73.743,212.087 82.065,188.06Z" style="fill:#a3a84d;fill-rule:nonzero;"/>
        <path d="M82.065,188.06C84.17,206.309 90.691,228.353 103.898,245.72C77.314,238.449 73.743,212.087 82.065,188.06Z" style="fill:#8c8c43;fill-rule:nonzero;"/>
        <path d="M146.845,185.959L146.838,185.926L146.369,186.084C121.407,194.861 105.842,212.052 117.285,240.067C144.614,236.52 151.778,210.906 146.845,185.959Z" style="fill:#a3a84d;fill-rule:nonzero;"/>
        <path d="M146.845,185.959C142.243,203.739 132.752,224.679 117.285,240.067C144.614,236.52 151.778,210.906 146.845,185.959Z" style="fill:#8c8c43;fill-rule:nonzero;"/>
        <path d="M179.498,218.909L179.52,218.882L179.064,218.678C154.817,208.087 131.714,210.061 120.994,238.36C143.407,254.392 166.109,240.532 179.498,218.909Z" style="fill:#a3a84d;fill-rule:nonzero;"/>
        <path d="M179.498,218.909C164.014,228.786 142.8,237.642 120.994,238.36C143.407,254.392 166.109,240.532 179.498,218.909Z" style="fill:#8c8c43;fill-rule:nonzero;"/>
        <path d="M98.785,180.524L98.796,180.494L99.238,180.715C122.754,192.839 135.809,212.008 120.621,238.184C94.038,230.913 90.464,204.555 98.785,180.524Z" style="fill:#a3a84d;fill-rule:nonzero;"/>
        <path d="M98.785,180.524C100.898,198.768 107.417,220.814 120.621,238.184C94.038,230.913 90.464,204.555 98.785,180.524Z" style="fill:#8c8c43;fill-rule:nonzero;"/>
        <path d="M113.583,205.162C132.915,210.584 179.94,240.448 183.407,259.715C188.384,287.289 149.078,318.619 130.782,334.369C117.072,346.174 90.754,362.599 69.02,356.998C47.502,351.454 44.836,315.488 42.785,297.282C40.003,272.545 47.067,240.313 52.169,224.367C61.432,195.423 89.903,197.524 110.528,204.176L113.583,205.162Z" style="fill:#df1e37;fill-rule:nonzero;"/>
        <path d="M69.02,356.998C90.754,362.599 117.072,346.174 130.782,334.369C149.078,318.619 188.384,287.289 183.407,259.715C182.928,257.027 181.591,254.13 179.606,251.125C179.606,251.125 186.542,271.774 137.372,315.794C132.305,320.322 93.004,356.3 65.04,355.533C66.288,356.141 67.613,356.636 69.02,356.998Z" style="fill:#ce233c;fill-rule:nonzero;"/>
        <path d="M85.275,298.913C85.257,298.972 84.389,301.279 84.384,304.073C84.385,305.435 84.593,306.926 85.261,308.319C85.926,309.712 87.081,310.989 88.832,311.816C89.907,312.328 90.959,312.558 91.945,312.557C93.327,312.558 94.561,312.111 95.597,311.476C97.153,310.519 98.306,309.151 99.095,308.026C99.88,306.899 100.296,306.006 100.312,305.972C100.528,305.505 100.325,304.951 99.858,304.735C99.392,304.519 98.838,304.722 98.623,305.188L98.618,305.196C98.557,305.327 97.848,306.772 96.653,308.13C96.057,308.809 95.341,309.463 94.548,309.933C93.752,310.404 92.892,310.694 91.945,310.695C91.244,310.694 90.482,310.537 89.633,310.133C88.256,309.473 87.453,308.564 86.94,307.511C86.432,306.46 86.245,305.244 86.246,304.073C86.246,302.873 86.441,301.728 86.638,300.895C86.736,300.477 86.834,300.137 86.906,299.906C86.943,299.789 86.973,299.701 86.992,299.643L87.015,299.578L87.021,299.564C87.2,299.082 86.955,298.545 86.473,298.366C85.99,298.187 85.454,298.432 85.275,298.913Z" style="fill:#4b4443;fill-rule:nonzero;"/>
        <path d="M118.14,313.964C115.463,312.71 113.083,310.855 110.068,311.858C104.039,313.865 111.443,318.226 113.836,319.37C116.014,320.403 122.493,323.83 124.528,321.254C127.066,318.033 120.432,315.291 118.741,314.22L118.14,313.964Z" style="fill:#f09488;fill-rule:nonzero;"/>
        <path d="M67.817,290.029C65.14,288.777 62.757,286.917 59.749,287.922C53.716,289.927 61.118,294.288 63.514,295.434C65.693,296.471 72.174,299.901 74.207,297.321C76.746,294.098 70.106,291.36 68.417,290.288L67.817,290.029Z" style="fill:#f09488;fill-rule:nonzero;"/>
        <path d="M129.367,311.803C129.383,311.746 131.295,306.891 131.303,301.7C131.302,299.691 131.015,297.619 130.162,295.75C129.316,293.881 127.865,292.227 125.677,291.193C124.388,290.579 123.106,290.298 121.877,290.299C119.796,290.3 117.909,291.087 116.284,292.201C113.843,293.88 111.926,296.307 110.586,298.316C109.249,300.328 108.503,301.927 108.49,301.956C108.269,302.429 108.473,302.992 108.947,303.212C109.419,303.432 109.981,303.228 110.201,302.755L110.213,302.731C110.348,302.445 111.674,299.727 113.796,297.138C114.854,295.842 116.111,294.584 117.484,293.67C118.861,292.753 120.333,292.189 121.877,292.189C122.822,292.19 123.809,292.397 124.866,292.899C126.646,293.751 127.74,295.005 128.444,296.534C129.143,298.06 129.415,299.872 129.414,301.7C129.415,304.063 128.964,306.436 128.508,308.206C128.28,309.09 128.053,309.826 127.884,310.335C127.799,310.59 127.728,310.789 127.68,310.922L127.624,311.073L127.607,311.117C127.417,311.603 127.657,312.151 128.144,312.341C128.63,312.53 129.177,312.29 129.367,311.804L129.367,311.803Z" style="fill:#4b4443;fill-rule:nonzero;"/>
        <path d="M64.107,280.92L64.12,280.896C64.276,280.624 65.806,278.034 68.146,275.56C69.315,274.324 70.685,273.119 72.163,272.241C73.642,271.359 75.211,270.811 76.816,270.812C77.836,270.812 78.879,271.027 79.972,271.547C81.575,272.314 82.56,273.377 83.198,274.652C83.829,275.925 84.089,277.434 84.088,279.008C84.09,281.442 83.467,284.002 82.835,285.934C82.519,286.899 82.203,287.71 81.968,288.275C81.85,288.558 81.752,288.779 81.684,288.927L81.607,289.096L81.583,289.146C81.355,289.616 81.551,290.181 82.021,290.409C82.491,290.636 83.056,290.44 83.284,289.97C83.296,289.942 83.962,288.566 84.631,286.52C85.297,284.471 85.975,281.756 85.977,279.008C85.976,277.234 85.692,275.436 84.89,273.813C84.092,272.191 82.751,270.771 80.784,269.841C79.45,269.204 78.108,268.921 76.816,268.922C74.708,268.923 72.756,269.661 71.033,270.716C68.448,272.302 66.333,274.61 64.837,276.522C63.344,278.436 62.48,279.959 62.464,279.987C62.205,280.441 62.365,281.017 62.819,281.275C63.273,281.532 63.849,281.373 64.107,280.92Z" style="fill:#4b4443;fill-rule:nonzero;"/>
        <path d="M155.269,249.574C155.269,249.574 155.318,249.691 155.364,249.87C155.411,250.05 155.454,250.293 155.468,250.563C155.494,251.099 155.355,251.71 155.049,252.218C154.742,252.727 154.267,253.134 153.778,253.359C153.534,253.471 153.298,253.545 153.115,253.587C152.935,253.629 152.808,253.639 152.808,253.639C152.808,253.639 152.759,253.522 152.713,253.343C152.665,253.162 152.621,252.919 152.607,252.65C152.58,252.112 152.72,251.503 153.029,250.996C153.337,250.488 153.814,250.082 154.301,249.857C154.547,249.745 154.782,249.67 154.964,249.629C155.144,249.585 155.269,249.574 155.269,249.574Z" style="fill:#f8cf50;fill-rule:nonzero;"/>
        <path d="M81.058,345.385C81.058,345.385 81.108,345.502 81.153,345.681C81.202,345.862 81.244,346.105 81.258,346.373C81.286,346.91 81.146,347.52 80.842,348.028C80.535,348.537 80.062,348.944 79.572,349.17C79.327,349.282 79.092,349.357 78.909,349.398C78.729,349.441 78.603,349.451 78.603,349.451C78.603,349.451 78.552,349.334 78.507,349.154C78.459,348.973 78.416,348.731 78.4,348.462C78.372,347.925 78.512,347.316 78.82,346.807C79.128,346.301 79.604,345.894 80.092,345.667C80.337,345.556 80.571,345.48 80.754,345.439C80.933,345.395 81.058,345.385 81.058,345.385Z" style="fill:#f8cf50;fill-rule:nonzero;"/>
        <path d="M82.943,326.337C82.943,326.337 82.993,326.454 83.038,326.633C83.085,326.813 83.128,327.056 83.143,327.325C83.17,327.862 83.03,328.473 82.725,328.981C82.418,329.49 81.945,329.897 81.455,330.121C81.21,330.234 80.975,330.307 80.792,330.349C80.612,330.392 80.486,330.402 80.486,330.402C80.486,330.402 80.436,330.285 80.391,330.105C80.342,329.925 80.299,329.682 80.284,329.413C80.256,328.875 80.397,328.266 80.705,327.759C81.013,327.251 81.489,326.845 81.977,326.62C82.221,326.507 82.457,326.433 82.638,326.391C82.818,326.348 82.943,326.337 82.943,326.337Z" style="fill:#f8cf50;fill-rule:nonzero;"/>
        <path d="M128.919,253.659C128.919,253.659 128.968,253.776 129.013,253.953C129.061,254.135 129.103,254.376 129.117,254.645C129.143,255.181 129.005,255.792 128.699,256.298C128.393,256.807 127.92,257.213 127.431,257.436C127.185,257.547 126.951,257.621 126.767,257.662C126.588,257.704 126.461,257.715 126.461,257.715C126.461,257.715 126.411,257.598 126.366,257.418C126.318,257.238 126.275,256.995 126.26,256.726C126.233,256.189 126.372,255.58 126.682,255.074C126.99,254.567 127.465,254.163 127.952,253.939C128.197,253.827 128.431,253.752 128.614,253.711C128.793,253.668 128.919,253.659 128.919,253.659Z" style="fill:#f8cf50;fill-rule:nonzero;"/>
        <path d="M111.212,238.556C111.212,238.556 111.261,238.672 111.306,238.852C111.355,239.033 111.397,239.275 111.411,239.544C111.44,240.081 111.302,240.69 110.996,241.199C110.69,241.708 110.217,242.115 109.728,242.34C109.484,242.453 109.248,242.528 109.066,242.569C108.886,242.612 108.759,242.621 108.759,242.621C108.759,242.621 108.708,242.504 108.663,242.325C108.615,242.144 108.571,241.902 108.557,241.634C108.528,241.095 108.667,240.486 108.976,239.979C109.282,239.472 109.757,239.066 110.245,238.839C110.49,238.727 110.724,238.652 110.907,238.61C111.086,238.566 111.212,238.556 111.212,238.556Z" style="fill:#f8cf50;fill-rule:nonzero;"/>
        <path d="M166.617,266.358C166.617,266.358 166.667,266.474 166.712,266.652C166.76,266.833 166.802,267.076 166.818,267.344C166.845,267.88 166.707,268.489 166.401,268.997C166.096,269.506 165.623,269.913 165.133,270.137C164.888,270.249 164.653,270.324 164.47,270.365C164.29,270.408 164.164,270.419 164.164,270.419C164.164,270.419 164.113,270.302 164.068,270.123C164.018,269.943 163.975,269.7 163.961,269.431C163.932,268.894 164.072,268.285 164.379,267.778C164.688,267.272 165.162,266.866 165.651,266.641C165.895,266.528 166.13,266.453 166.312,266.411C166.491,266.367 166.617,266.358 166.617,266.358Z" style="fill:#f8cf50;fill-rule:nonzero;"/>
        <path d="M142.759,310.061C142.759,310.061 142.808,310.177 142.852,310.355C142.9,310.537 142.944,310.779 142.958,311.047C142.985,311.585 142.848,312.194 142.541,312.702C142.235,313.211 141.761,313.619 141.274,313.843C141.029,313.955 140.794,314.029 140.61,314.07C140.431,314.114 140.304,314.124 140.304,314.124C140.304,314.124 140.254,314.007 140.208,313.827C140.16,313.647 140.117,313.404 140.102,313.135C140.073,312.597 140.212,311.988 140.521,311.481C140.83,310.974 141.305,310.568 141.792,310.343C142.037,310.23 142.271,310.156 142.453,310.114C142.633,310.07 142.759,310.061 142.759,310.061Z" style="fill:#f8cf50;fill-rule:nonzero;"/>
        <path d="M60.639,308.639C60.639,308.639 60.721,308.749 60.818,308.932C60.919,309.115 61.032,309.371 61.127,309.668C61.313,310.265 61.363,311.019 61.218,311.734C61.077,312.449 60.741,313.126 60.336,313.603C60.134,313.841 59.93,314.033 59.765,314.162C59.605,314.293 59.486,314.362 59.486,314.362C59.486,314.362 59.402,314.252 59.306,314.068C59.204,313.886 59.09,313.63 58.995,313.332C58.806,312.736 58.76,311.982 58.906,311.267C59.05,310.552 59.388,309.875 59.791,309.399C59.994,309.161 60.197,308.969 60.36,308.84C60.521,308.708 60.639,308.639 60.639,308.639Z" style="fill:#f8cf50;fill-rule:nonzero;"/>
        <path d="M73.723,218.121C73.723,218.121 73.808,218.216 73.911,218.371C74.017,218.528 74.139,218.747 74.242,218.999C74.448,219.505 74.521,220.139 74.404,220.735C74.286,221.332 73.977,221.889 73.591,222.276C73.397,222.469 73.201,222.623 73.042,222.726C72.887,222.831 72.771,222.885 72.771,222.885C72.771,222.885 72.685,222.79 72.582,222.634C72.475,222.477 72.353,222.26 72.25,222.007C72.042,221.5 71.97,220.866 72.09,220.271C72.211,219.676 72.523,219.118 72.907,218.731C73.1,218.538 73.296,218.384 73.453,218.279C73.608,218.176 73.723,218.121 73.723,218.121Z" style="fill:#f8cf50;fill-rule:nonzero;"/>
        <path d="M87.132,243.839C87.132,243.839 87.189,243.973 87.246,244.189C87.305,244.406 87.361,244.707 87.389,245.05C87.444,245.739 87.326,246.583 87.025,247.355C86.725,248.127 86.243,248.828 85.735,249.299C85.481,249.533 85.234,249.715 85.042,249.836C84.854,249.957 84.72,250.015 84.72,250.015C84.72,250.015 84.662,249.88 84.605,249.664C84.545,249.446 84.487,249.146 84.459,248.801C84.403,248.113 84.523,247.271 84.826,246.499C85.128,245.726 85.613,245.027 86.121,244.557C86.373,244.322 86.619,244.14 86.811,244.02C86.998,243.899 87.132,243.839 87.132,243.839Z" style="fill:#f8cf50;fill-rule:nonzero;"/>
        <path d="M63.912,329.912C63.912,329.912 63.969,330.047 64.025,330.263C64.084,330.48 64.141,330.78 64.169,331.125C64.224,331.814 64.105,332.656 63.804,333.427C63.505,334.199 63.022,334.899 62.513,335.366C62.26,335.601 62.014,335.783 61.821,335.902C61.633,336.023 61.499,336.081 61.499,336.081C61.499,336.081 61.441,335.947 61.384,335.73C61.325,335.512 61.267,335.212 61.24,334.867C61.184,334.178 61.304,333.337 61.606,332.565C61.909,331.795 62.394,331.096 62.901,330.628C63.155,330.394 63.399,330.212 63.59,330.092C63.779,329.971 63.912,329.912 63.912,329.912Z" style="fill:#f8cf50;fill-rule:nonzero;"/>
        <path d="M109.754,264.715C109.754,264.715 109.812,264.849 109.869,265.066C109.928,265.283 109.985,265.584 110.012,265.928C110.066,266.616 109.948,267.459 109.647,268.231C109.347,269.003 108.863,269.705 108.355,270.173C108.1,270.406 107.855,270.589 107.663,270.708C107.475,270.829 107.34,270.887 107.34,270.887C107.34,270.887 107.282,270.753 107.225,270.536C107.166,270.318 107.108,270.018 107.081,269.674C107.025,268.985 107.146,268.141 107.449,267.372C107.752,266.6 108.236,265.9 108.743,265.432C108.997,265.198 109.243,265.016 109.433,264.895C109.622,264.774 109.754,264.715 109.754,264.715Z" style="fill:#f8cf50;fill-rule:nonzero;"/>
        <path d="M140.675,270.355C140.675,270.355 140.707,270.497 140.717,270.721C140.733,270.946 140.728,271.251 140.687,271.594C140.602,272.28 140.319,273.083 139.87,273.781C139.422,274.478 138.808,275.07 138.216,275.429C137.921,275.608 137.644,275.737 137.432,275.817C137.222,275.898 137.079,275.929 137.079,275.929C137.079,275.929 137.048,275.786 137.037,275.562C137.021,275.337 137.024,275.032 137.066,274.688C137.149,274.002 137.435,273.198 137.885,272.503C138.335,271.807 138.951,271.216 139.541,270.857C139.837,270.678 140.114,270.547 140.325,270.468C140.534,270.387 140.675,270.355 140.675,270.355Z" style="fill:#f8cf50;fill-rule:nonzero;"/>
        <path d="M66.04,241.233C66.04,241.233 66.119,241.355 66.212,241.558C66.308,241.762 66.415,242.049 66.502,242.382C66.676,243.051 66.705,243.903 66.542,244.714C66.38,245.526 66.026,246.299 65.606,246.85C65.397,247.124 65.186,247.345 65.018,247.496C64.854,247.648 64.732,247.729 64.732,247.729C64.732,247.729 64.651,247.607 64.558,247.403C64.462,247.199 64.353,246.914 64.265,246.579C64.091,245.91 64.064,245.06 64.23,244.247C64.394,243.436 64.75,242.662 65.167,242.114C65.377,241.839 65.587,241.616 65.754,241.465C65.919,241.314 66.04,241.233 66.04,241.233Z" style="fill:#f8cf50;fill-rule:nonzero;"/>
        <path d="M55.319,267.531C55.319,267.531 55.399,267.653 55.491,267.857C55.587,268.06 55.695,268.346 55.782,268.681C55.954,269.35 55.983,270.201 55.82,271.012C55.658,271.825 55.303,272.598 54.884,273.145C54.674,273.42 54.463,273.641 54.295,273.792C54.13,273.944 54.008,274.025 54.008,274.025C54.008,274.025 53.928,273.903 53.834,273.7C53.738,273.495 53.63,273.208 53.543,272.873C53.369,272.205 53.342,271.354 53.507,270.543C53.672,269.731 54.028,268.959 54.446,268.41C54.656,268.136 54.866,267.915 55.034,267.764C55.198,267.613 55.319,267.531 55.319,267.531Z" style="fill:#f8cf50;fill-rule:nonzero;"/>
        <path d="M157.522,287.656C157.522,287.656 157.518,287.802 157.479,288.022C157.442,288.245 157.367,288.541 157.248,288.865C157.009,289.514 156.551,290.232 155.954,290.806C155.358,291.383 154.626,291.818 153.969,292.032C153.64,292.138 153.34,292.201 153.117,292.229C152.894,292.26 152.748,292.258 152.748,292.258C152.748,292.258 152.751,292.111 152.79,291.891C152.828,291.667 152.9,291.37 153.019,291.045C153.256,290.397 153.718,289.681 154.316,289.107C154.913,288.533 155.647,288.099 156.303,287.885C156.632,287.778 156.93,287.715 157.154,287.686C157.376,287.654 157.522,287.656 157.522,287.656Z" style="fill:#f8cf50;fill-rule:nonzero;"/>
        <path d="M107.767,333.889C107.767,333.889 107.763,334.034 107.724,334.255C107.688,334.476 107.614,334.773 107.494,335.098C107.257,335.746 106.799,336.462 106.203,337.037C105.607,337.613 104.876,338.048 104.219,338.261C103.891,338.369 103.591,338.432 103.367,338.46C103.145,338.491 102.999,338.489 102.999,338.489C102.999,338.489 103.002,338.343 103.04,338.122C103.077,337.899 103.15,337.603 103.268,337.277C103.505,336.629 103.965,335.913 104.562,335.34C105.159,334.766 105.892,334.332 106.549,334.117C106.878,334.011 107.176,333.947 107.399,333.919C107.621,333.887 107.767,333.889 107.767,333.889Z" style="fill:#f8cf50;fill-rule:nonzero;"/>
        <path d="M133.187,225.383C133.187,225.383 133.23,225.523 133.263,225.743C133.299,225.967 133.324,226.271 133.316,226.616C133.296,227.305 133.09,228.131 132.71,228.868C132.33,229.603 131.775,230.247 131.221,230.66C130.944,230.867 130.68,231.02 130.476,231.12C130.276,231.22 130.137,231.264 130.137,231.264C130.137,231.264 130.094,231.125 130.06,230.903C130.023,230.681 129.997,230.376 130.006,230.031C130.024,229.341 130.231,228.514 130.614,227.781C130.997,227.047 131.553,226.402 132.106,225.989C132.383,225.783 132.646,225.627 132.849,225.528C133.049,225.429 133.187,225.383 133.187,225.383Z" style="fill:#f8cf50;fill-rule:nonzero;"/>
        <path d="M101.809,216.237C101.809,216.237 101.852,216.376 101.886,216.597C101.922,216.819 101.946,217.124 101.937,217.469C101.92,218.159 101.714,218.986 101.334,219.722C100.954,220.457 100.4,221.103 99.846,221.516C99.568,221.722 99.306,221.877 99.102,221.977C98.901,222.076 98.762,222.121 98.762,222.121C98.762,222.121 98.717,221.981 98.685,221.76C98.648,221.536 98.623,221.232 98.63,220.887C98.648,220.196 98.856,219.371 99.237,218.636C99.619,217.902 100.175,217.257 100.728,216.844C101.005,216.638 101.268,216.482 101.471,216.382C101.67,216.282 101.809,216.237 101.809,216.237Z" style="fill:#f8cf50;fill-rule:nonzero;"/>
    </g>
</svg>
