<svg width="100%" height="100%" viewBox="0 0 108 108" version="1.1" xmlns="http://www.w3.org/2000/svg" xml:space="preserve" fill-rule="evenodd" clip-rule="evenodd" stroke-linejoin="round" stroke-miterlimit="1.41421"><rect id="Icon_108" x="0" y="0" width="108" height="108" fill="none"/><g id="Banana"><path d="M29.371,76.374C29.415,75.774 29.637,75.209 29.99,74.701C29.558,74.79 29.155,75.253 29.069,75.989C29.043,76.222 28.998,76.688 29.065,77.152C29.191,77.199 29.321,77.251 29.453,77.304C29.38,76.977 29.35,76.664 29.371,76.374Z" fill="#84583e" fill-rule="nonzero"/><path d="M29.453,77.304C29.859,77.47 30.295,77.665 30.766,77.894C30.816,77.544 31.247,75.15 30.474,74.763C30.319,74.685 30.153,74.667 29.99,74.701C29.637,75.209 29.415,75.774 29.371,76.374C29.35,76.664 29.38,76.977 29.453,77.304Z" fill="#84583e" fill-rule="nonzero"/><path d="M70.137,24.032C69.467,23.979 67.284,23.979 66.425,24.132C67.585,24.836 68.677,24.44 70.137,24.032Z" fill="#84583e" fill-rule="nonzero"/><path d="M70.137,24.032C70.097,25.01 70.007,25.862 69.9,26.608C70.037,25.865 70.137,25.318 70.137,24.032Z" fill="#84583e" fill-rule="nonzero"/><path d="M66.334,26.592C67.235,26.399 68.966,26.897 69.881,26.709C69.888,26.675 69.893,26.642 69.9,26.608C70.007,25.862 70.097,25.01 70.137,24.032C68.677,24.44 67.585,24.836 66.425,24.132C66.335,25.059 66.316,25.861 66.334,26.592Z" fill="#84583e" fill-rule="nonzero"/><path d="M60.845,47.629C59.747,52.882 56.149,61.864 51.677,65.278C45.083,70.304 42.576,70.426 33.747,72.396C31.498,72.876 29.511,74.444 29.371,76.374C29.21,78.584 31.915,82.147 35.726,82.93C42.666,84.288 41.336,84.086 49.043,83.76C56.76,83.427 62.87,80.849 67.286,77.324C71.75,73.751 74.518,69.232 76.701,63.925C77.262,62.252 78.582,57.884 78.9,53.089C79.011,51.422 79,49.704 78.795,48.03C78.146,41.693 76.13,35.367 70.451,32.171C68.232,30.922 69.918,29.341 70.137,24.032C68.677,24.44 67.585,24.836 66.425,24.132C65.958,28.831 67.194,29.838 65.219,33.864C63.7,36.96 61.685,43.735 60.845,47.629Z" fill="#f8cf50" fill-rule="nonzero"/><path d="M30.755,77.958C30.486,78.415 30.032,78.469 29.717,78.294C28.89,77.833 29.018,76.452 29.069,75.989C29.187,74.976 29.907,74.476 30.474,74.763C31.247,75.15 30.816,77.544 30.766,77.894C30.762,77.915 30.758,77.936 30.755,77.958Z" fill="#84583e" fill-rule="nonzero"/><path d="M66.425,24.132C66.335,25.059 66.316,25.861 66.334,26.592C67.235,26.399 68.966,26.897 69.881,26.709C70.028,25.911 70.137,25.376 70.137,24.032C69.467,23.979 67.284,23.979 66.425,24.132Z" fill="#84583e" fill-rule="nonzero"/><path d="M74.35,49.926C73.218,60.333 69.979,66.738 61.497,73.418C55.474,78.163 37.642,81.252 30.766,77.894C30.762,77.915 30.758,77.936 30.755,77.958C30.513,78.369 30.121,78.453 29.816,78.339C30.723,80.277 32.924,82.355 35.726,82.93C42.666,84.288 41.336,84.086 49.043,83.76C56.76,83.427 62.87,80.849 67.286,77.324C71.75,73.751 74.518,69.232 76.701,63.925C77.457,61.671 79.591,54.522 78.795,48.03C78.146,41.693 76.13,35.367 70.451,32.171C70.262,32.064 70.102,31.954 69.966,31.84L69.964,31.84C69.964,31.84 75.621,38.254 74.35,49.926Z" fill="#eebe29" fill-rule="nonzero"/><path d="M66.265,57.319C66.265,59.223 64.687,60.766 62.74,60.766C60.793,60.766 59.216,59.223 59.216,57.319C59.216,55.415 60.793,53.871 62.74,53.871C64.687,53.871 66.265,55.415 66.265,57.319Z" fill="#fff" fill-rule="nonzero"/><path d="M65.951,57.319C65.951,58.849 64.683,60.089 63.119,60.089C61.554,60.089 60.287,58.849 60.287,57.319C60.287,55.788 61.554,54.548 63.119,54.548C64.683,54.548 65.951,55.788 65.951,57.319Z" fill="#4b4443" fill-rule="nonzero"/><path d="M62.623,56.481C62.623,56.943 62.239,57.319 61.766,57.319C61.293,57.319 60.91,56.943 60.91,56.481C60.91,56.018 61.293,55.643 61.766,55.643C62.239,55.643 62.623,56.018 62.623,56.481Z" fill="#fff" fill-rule="nonzero"/><path d="M68.872,57.301C68.872,59.204 70.45,60.749 72.397,60.749C74.344,60.749 75.922,59.204 75.922,57.301C75.922,55.397 74.344,53.852 72.397,53.852C70.45,53.852 68.872,55.397 68.872,57.301Z" fill="#fff" fill-rule="nonzero"/><path d="M69.304,57.319C69.304,58.865 70.587,60.119 72.167,60.119C73.749,60.119 75.031,58.865 75.031,57.319C75.031,55.772 73.749,54.518 72.167,54.518C70.587,54.518 69.304,55.772 69.304,57.319Z" fill="#4b4443" fill-rule="nonzero"/><path d="M71.677,56.481C71.677,56.943 71.294,57.319 70.821,57.319C70.347,57.319 69.964,56.943 69.964,56.481C69.964,56.018 70.347,55.643 70.821,55.643C71.294,55.643 71.677,56.018 71.677,56.481Z" fill="#fff" fill-rule="nonzero"/><path d="M65.536,61.726C65.538,61.74 65.588,62.324 65.876,62.931C66.021,63.234 66.227,63.545 66.527,63.787C66.827,64.028 67.227,64.192 67.715,64.191C68.191,64.192 68.576,64.035 68.855,63.798C69.065,63.62 69.219,63.403 69.332,63.18C69.502,62.846 69.584,62.497 69.627,62.222C69.67,61.947 69.672,61.746 69.672,61.71L69.507,61.71L69.671,61.719L69.672,61.71L69.507,61.71L69.671,61.719C69.678,61.594 69.58,61.487 69.453,61.48C69.325,61.473 69.215,61.569 69.208,61.694L69.208,61.71C69.209,61.745 69.201,62.289 69,62.793C68.901,63.045 68.755,63.284 68.552,63.454C68.349,63.624 68.091,63.735 67.715,63.737C67.33,63.736 67.05,63.617 66.821,63.435C66.65,63.299 66.511,63.123 66.399,62.933C66.231,62.648 66.129,62.332 66.071,62.089C66.041,61.968 66.023,61.865 66.012,61.794C66.007,61.758 66.003,61.73 66.001,61.712L65.998,61.691L65.998,61.687L65.998,61.686C65.987,61.561 65.874,61.469 65.747,61.48C65.619,61.491 65.525,61.601 65.536,61.726L65.536,61.726Z" fill="#4b4443" fill-rule="nonzero"/><path d="M73.359,61.597C72.623,61.602 71.889,61.443 71.319,61.979C70.178,63.051 72.309,63.236 72.969,63.237C73.57,63.237 75.394,63.313 75.576,62.533C75.801,61.559 74.016,61.651 73.521,61.591L73.359,61.597Z" fill="#f09488" fill-rule="nonzero"/><path d="M61.6,61.597C60.865,61.602 60.13,61.443 59.56,61.979C58.419,63.051 60.55,63.236 61.21,63.237C61.811,63.237 63.635,63.313 63.816,62.533C64.042,61.559 62.257,61.651 61.763,61.591L61.6,61.597Z" fill="#f09488" fill-rule="nonzero"/></g><g id="Strawberry"><path d="M54.334,56.095L54.336,56.091L54.274,56.064C50.918,54.63 47.72,54.896 46.236,58.728C49.338,60.898 52.48,59.022 54.334,56.095Z" fill="#a3a84d" fill-rule="nonzero"/><path d="M54.334,56.095C52.191,57.432 49.254,58.631 46.236,58.728C49.338,60.898 52.48,59.022 54.334,56.095Z" fill="#8c8c43" fill-rule="nonzero"/><path d="M40.307,49.406L40.308,49.402L40.369,49.431C43.624,51.072 45.431,53.668 43.329,57.211C39.649,56.227 39.155,52.658 40.307,49.406Z" fill="#a3a84d" fill-rule="nonzero"/><path d="M40.307,49.406C40.598,51.876 41.501,54.86 43.329,57.211C39.649,56.227 39.155,52.658 40.307,49.406Z" fill="#8c8c43" fill-rule="nonzero"/><path d="M49.273,49.121L49.272,49.117L49.207,49.138C45.752,50.326 43.598,52.653 45.182,56.446C48.964,55.966 49.955,52.498 49.273,49.121Z" fill="#a3a84d" fill-rule="nonzero"/><path d="M49.273,49.121C48.636,51.528 47.322,54.363 45.182,56.446C48.964,55.966 49.955,52.498 49.273,49.121Z" fill="#8c8c43" fill-rule="nonzero"/><path d="M53.792,53.582L53.795,53.578L53.732,53.55C50.376,52.117 47.179,52.384 45.695,56.215C48.797,58.385 51.939,56.509 53.792,53.582Z" fill="#a3a84d" fill-rule="nonzero"/><path d="M53.792,53.582C51.649,54.919 48.713,56.118 45.695,56.215C48.797,58.385 51.939,56.509 53.792,53.582Z" fill="#8c8c43" fill-rule="nonzero"/><path d="M42.621,48.385L42.623,48.381L42.684,48.411C45.938,50.052 47.745,52.647 45.643,56.191C41.964,55.207 41.469,51.638 42.621,48.385Z" fill="#a3a84d" fill-rule="nonzero"/><path d="M42.621,48.385C42.914,50.855 43.816,53.839 45.643,56.191C41.964,55.207 41.469,51.638 42.621,48.385Z" fill="#8c8c43" fill-rule="nonzero"/><path d="M44.669,51.721C47.345,52.455 53.853,56.497 54.333,59.105C55.022,62.838 49.582,67.079 47.05,69.211C45.152,70.81 41.51,73.033 38.501,72.275C35.523,71.524 35.154,66.656 34.87,64.191C34.485,60.842 35.463,56.479 36.169,54.32C37.451,50.402 41.392,50.687 44.246,51.587L44.669,51.721Z" fill="#df1e37" fill-rule="nonzero"/><path d="M38.501,72.275C41.51,73.033 45.152,70.81 47.05,69.211C49.582,67.079 55.022,62.838 54.333,59.105C54.267,58.742 54.082,58.349 53.807,57.943C53.807,57.943 54.767,60.738 47.962,66.697C47.26,67.31 41.821,72.18 37.951,72.076C38.123,72.159 38.307,72.226 38.501,72.275Z" fill="#ce233c" fill-rule="nonzero"/><path d="M40.751,64.412C40.749,64.42 40.629,64.732 40.628,65.11C40.628,65.295 40.657,65.496 40.749,65.685C40.841,65.874 41.001,66.046 41.243,66.158C41.392,66.228 41.538,66.259 41.674,66.259C41.866,66.259 42.036,66.198 42.18,66.112C42.395,65.983 42.555,65.798 42.664,65.645C42.773,65.493 42.83,65.372 42.832,65.367C42.862,65.304 42.834,65.229 42.77,65.2C42.705,65.171 42.628,65.198 42.599,65.261L42.598,65.262C42.589,65.28 42.491,65.476 42.326,65.659C42.243,65.751 42.144,65.84 42.035,65.904C41.924,65.967 41.805,66.007 41.674,66.007C41.577,66.007 41.472,65.985 41.354,65.931C41.164,65.841 41.053,65.718 40.982,65.576C40.911,65.433 40.886,65.269 40.886,65.11C40.886,64.948 40.913,64.793 40.94,64.68C40.953,64.623 40.967,64.578 40.977,64.546C40.982,64.53 40.986,64.518 40.989,64.511L40.992,64.502L40.993,64.5C41.018,64.435 40.984,64.362 40.917,64.338C40.85,64.313 40.776,64.347 40.751,64.412Z" fill="#4b4443" fill-rule="nonzero"/><path d="M45.3,66.449C44.929,66.279 44.6,66.028 44.183,66.164C43.348,66.436 44.373,67.026 44.704,67.181C45.006,67.321 45.902,67.785 46.184,67.436C46.535,67 45.617,66.629 45.383,66.484L45.3,66.449Z" fill="#f09488" fill-rule="nonzero"/><path d="M38.335,63.209C37.964,63.04 37.635,62.788 37.218,62.924C36.383,63.195 37.408,63.786 37.739,63.941C38.041,64.081 38.938,64.546 39.219,64.196C39.571,63.76 38.652,63.389 38.418,63.244L38.335,63.209Z" fill="#f09488" fill-rule="nonzero"/><path d="M46.854,66.157C46.856,66.149 47.121,65.492 47.122,64.789C47.122,64.517 47.082,64.237 46.964,63.984C46.847,63.731 46.646,63.507 46.343,63.367C46.165,63.284 45.987,63.246 45.817,63.246C45.529,63.246 45.268,63.352 45.043,63.503C44.705,63.73 44.44,64.059 44.254,64.331C44.069,64.603 43.966,64.82 43.964,64.824C43.934,64.888 43.962,64.964 44.027,64.994C44.093,65.024 44.171,64.996 44.201,64.932L44.203,64.929C44.221,64.89 44.405,64.522 44.699,64.171C44.845,63.996 45.019,63.826 45.209,63.702C45.4,63.578 45.603,63.502 45.817,63.502C45.948,63.502 46.085,63.53 46.231,63.598C46.477,63.713 46.628,63.883 46.726,64.09C46.823,64.296 46.86,64.542 46.86,64.789C46.86,65.109 46.798,65.43 46.735,65.67C46.703,65.789 46.672,65.889 46.648,65.958C46.637,65.992 46.627,66.019 46.62,66.037L46.613,66.058L46.61,66.064C46.584,66.13 46.617,66.204 46.684,66.23C46.752,66.255 46.827,66.223 46.854,66.157L46.854,66.157Z" fill="#4b4443" fill-rule="nonzero"/><path d="M37.821,61.976L37.823,61.973C37.845,61.936 38.057,61.585 38.38,61.25C38.542,61.083 38.732,60.92 38.936,60.801C39.141,60.682 39.358,60.608 39.58,60.608C39.722,60.608 39.866,60.637 40.017,60.707C40.239,60.811 40.375,60.955 40.464,61.128C40.551,61.3 40.587,61.504 40.587,61.717C40.587,62.047 40.501,62.393 40.413,62.655C40.37,62.785 40.326,62.895 40.293,62.972C40.277,63.01 40.264,63.04 40.254,63.06L40.244,63.083L40.24,63.09C40.209,63.153 40.236,63.23 40.301,63.261C40.366,63.291 40.444,63.265 40.476,63.201C40.477,63.197 40.569,63.011 40.662,62.734C40.754,62.457 40.848,62.089 40.848,61.717C40.848,61.477 40.809,61.234 40.698,61.014C40.587,60.794 40.402,60.602 40.13,60.476C39.945,60.39 39.759,60.352 39.58,60.352C39.289,60.352 39.018,60.452 38.78,60.595C38.422,60.809 38.13,61.122 37.922,61.381C37.716,61.64 37.596,61.846 37.594,61.85C37.558,61.911 37.58,61.989 37.643,62.024C37.706,62.059 37.786,62.037 37.821,61.976Z" fill="#4b4443" fill-rule="nonzero"/><path d="M50.439,57.733C50.439,57.733 50.445,57.749 50.452,57.773C50.458,57.797 50.464,57.83 50.466,57.867C50.47,57.939 50.451,58.022 50.408,58.091C50.366,58.159 50.3,58.215 50.232,58.245C50.199,58.26 50.166,58.27 50.141,58.276C50.116,58.282 50.098,58.283 50.098,58.283C50.098,58.283 50.091,58.267 50.085,58.243C50.078,58.218 50.072,58.186 50.07,58.149C50.067,58.076 50.086,57.994 50.129,57.925C50.171,57.856 50.237,57.802 50.305,57.771C50.339,57.756 50.371,57.746 50.396,57.74C50.421,57.734 50.439,57.733 50.439,57.733Z" fill="#f8cf50" fill-rule="nonzero"/><path d="M40.168,70.703C40.168,70.703 40.174,70.719 40.181,70.743C40.187,70.767 40.193,70.8 40.195,70.836C40.199,70.909 40.18,70.992 40.138,71.06C40.095,71.129 40.03,71.185 39.962,71.215C39.928,71.23 39.895,71.24 39.87,71.246C39.845,71.252 39.828,71.253 39.828,71.253C39.828,71.253 39.821,71.237 39.814,71.213C39.808,71.188 39.802,71.156 39.8,71.119C39.796,71.046 39.815,70.964 39.858,70.895C39.9,70.827 39.966,70.772 40.034,70.741C40.068,70.726 40.1,70.716 40.125,70.71C40.15,70.704 40.168,70.703 40.168,70.703Z" fill="#f8cf50" fill-rule="nonzero"/><path d="M40.428,68.124C40.428,68.124 40.435,68.14 40.442,68.164C40.448,68.189 40.454,68.222 40.456,68.258C40.46,68.331 40.441,68.413 40.398,68.482C40.356,68.551 40.29,68.606 40.223,68.636C40.189,68.652 40.156,68.662 40.131,68.667C40.106,68.673 40.088,68.674 40.088,68.674C40.088,68.674 40.081,68.659 40.075,68.634C40.068,68.61 40.062,68.577 40.06,68.541C40.057,68.468 40.076,68.385 40.119,68.317C40.161,68.248 40.227,68.193 40.295,68.162C40.329,68.147 40.361,68.137 40.386,68.132C40.411,68.126 40.428,68.124 40.428,68.124Z" fill="#f8cf50" fill-rule="nonzero"/><path d="M46.792,58.286C46.792,58.286 46.799,58.301 46.805,58.325C46.811,58.35 46.817,58.383 46.819,58.419C46.823,58.492 46.804,58.574 46.761,58.643C46.719,58.712 46.653,58.767 46.586,58.797C46.552,58.812 46.519,58.822 46.494,58.828C46.469,58.833 46.452,58.835 46.452,58.835C46.452,58.835 46.445,58.819 46.438,58.795C46.432,58.77 46.426,58.737 46.424,58.701C46.42,58.628 46.439,58.546 46.482,58.477C46.525,58.409 46.59,58.354 46.658,58.324C46.692,58.308 46.724,58.298 46.75,58.293C46.774,58.287 46.792,58.286 46.792,58.286Z" fill="#f8cf50" fill-rule="nonzero"/><path d="M44.341,56.241C44.341,56.241 44.348,56.257 44.354,56.281C44.361,56.306 44.367,56.338 44.369,56.375C44.373,56.448 44.353,56.53 44.311,56.599C44.269,56.668 44.203,56.723 44.136,56.753C44.102,56.769 44.069,56.779 44.044,56.784C44.019,56.79 44.001,56.792 44.001,56.792C44.001,56.792 43.995,56.776 43.988,56.751C43.982,56.727 43.975,56.694 43.973,56.658C43.969,56.585 43.989,56.502 44.031,56.434C44.074,56.365 44.14,56.31 44.207,56.28C44.241,56.264 44.273,56.254 44.299,56.248C44.324,56.243 44.341,56.241 44.341,56.241Z" fill="#f8cf50" fill-rule="nonzero"/><path d="M52.009,60.005C52.009,60.005 52.016,60.02 52.022,60.045C52.029,60.069 52.035,60.102 52.037,60.138C52.041,60.211 52.022,60.293 51.979,60.362C51.937,60.431 51.872,60.486 51.804,60.516C51.77,60.532 51.738,60.542 51.712,60.547C51.687,60.553 51.67,60.554 51.67,60.554C51.67,60.554 51.663,60.539 51.656,60.514C51.65,60.49 51.644,60.457 51.642,60.421C51.638,60.348 51.657,60.266 51.7,60.197C51.742,60.129 51.808,60.074 51.876,60.043C51.909,60.028 51.942,60.018 51.967,60.012C51.992,60.006 52.009,60.005 52.009,60.005Z" fill="#f8cf50" fill-rule="nonzero"/><path d="M48.707,65.921C48.707,65.921 48.714,65.937 48.72,65.961C48.727,65.985 48.733,66.018 48.735,66.054C48.739,66.127 48.72,66.21 48.677,66.278C48.635,66.347 48.569,66.402 48.502,66.433C48.468,66.448 48.435,66.458 48.41,66.464C48.385,66.47 48.368,66.471 48.368,66.471C48.368,66.471 48.361,66.455 48.354,66.431C48.348,66.406 48.342,66.373 48.34,66.337C48.336,66.264 48.355,66.182 48.398,66.113C48.44,66.044 48.506,65.989 48.573,65.959C48.607,65.944 48.64,65.934 48.665,65.928C48.69,65.922 48.707,65.921 48.707,65.921Z" fill="#f8cf50" fill-rule="nonzero"/><path d="M37.341,65.728C37.341,65.728 37.353,65.743 37.366,65.768C37.38,65.793 37.396,65.827 37.409,65.868C37.435,65.948 37.442,66.051 37.422,66.147C37.402,66.244 37.356,66.336 37.3,66.4C37.272,66.433 37.243,66.459 37.221,66.476C37.198,66.494 37.182,66.503 37.182,66.503C37.182,66.503 37.17,66.488 37.157,66.463C37.143,66.439 37.127,66.404 37.114,66.364C37.088,66.283 37.081,66.181 37.102,66.084C37.122,65.987 37.168,65.896 37.224,65.831C37.252,65.799 37.28,65.773 37.303,65.756C37.325,65.738 37.341,65.728 37.341,65.728Z" fill="#f8cf50" fill-rule="nonzero"/><path d="M39.152,53.475C39.152,53.475 39.164,53.488 39.178,53.509C39.193,53.53 39.21,53.56 39.224,53.594C39.253,53.662 39.263,53.748 39.247,53.829C39.23,53.91 39.187,53.985 39.134,54.037C39.107,54.063 39.08,54.084 39.058,54.098C39.037,54.112 39.021,54.12 39.021,54.12C39.021,54.12 39.009,54.107 38.994,54.086C38.98,54.065 38.963,54.035 38.948,54.001C38.92,53.932 38.91,53.846 38.926,53.766C38.943,53.685 38.986,53.61 39.039,53.558C39.066,53.531 39.093,53.51 39.115,53.496C39.136,53.482 39.152,53.475 39.152,53.475Z" fill="#f8cf50" fill-rule="nonzero"/><path d="M41.008,56.956C41.008,56.956 41.016,56.975 41.024,57.004C41.032,57.033 41.04,57.074 41.044,57.12C41.051,57.214 41.035,57.328 40.993,57.432C40.952,57.537 40.885,57.632 40.815,57.695C40.78,57.727 40.746,57.752 40.719,57.768C40.693,57.785 40.674,57.792 40.674,57.792C40.674,57.792 40.666,57.774 40.658,57.745C40.65,57.715 40.642,57.675 40.638,57.628C40.631,57.535 40.647,57.421 40.689,57.316C40.731,57.212 40.798,57.117 40.868,57.054C40.903,57.022 40.937,56.997 40.964,56.981C40.99,56.964 41.008,56.956 41.008,56.956Z" fill="#f8cf50" fill-rule="nonzero"/><path d="M37.794,68.608C37.794,68.608 37.802,68.626 37.81,68.656C37.818,68.685 37.826,68.726 37.83,68.772C37.838,68.866 37.821,68.98 37.779,69.084C37.738,69.188 37.671,69.283 37.601,69.346C37.566,69.378 37.532,69.403 37.505,69.419C37.479,69.435 37.46,69.443 37.46,69.443C37.46,69.443 37.452,69.425 37.445,69.396C37.436,69.366 37.428,69.326 37.425,69.279C37.417,69.186 37.433,69.072 37.475,68.967C37.517,68.863 37.584,68.768 37.655,68.705C37.69,68.673 37.723,68.649 37.75,68.633C37.776,68.616 37.794,68.608 37.794,68.608Z" fill="#f8cf50" fill-rule="nonzero"/><path d="M44.139,59.782C44.139,59.782 44.147,59.801 44.155,59.83C44.163,59.859 44.171,59.9 44.175,59.947C44.182,60.04 44.166,60.154 44.124,60.258C44.083,60.363 44.016,60.458 43.946,60.521C43.91,60.553 43.876,60.578 43.85,60.594C43.824,60.61 43.805,60.618 43.805,60.618C43.805,60.618 43.797,60.6 43.789,60.57C43.781,60.541 43.773,60.5 43.769,60.454C43.761,60.36 43.778,60.246 43.82,60.142C43.862,60.037 43.929,59.943 43.999,59.879C44.034,59.848 44.068,59.823 44.095,59.807C44.121,59.79 44.139,59.782 44.139,59.782Z" fill="#f8cf50" fill-rule="nonzero"/><path d="M48.419,60.546C48.419,60.546 48.423,60.565 48.425,60.595C48.427,60.626 48.426,60.667 48.42,60.714C48.409,60.806 48.37,60.915 48.307,61.01C48.245,61.104 48.16,61.184 48.079,61.233C48.038,61.257 47.999,61.274 47.97,61.285C47.941,61.296 47.921,61.3 47.921,61.3C47.921,61.3 47.917,61.281 47.915,61.251C47.913,61.22 47.914,61.179 47.919,61.132C47.931,61.039 47.97,60.931 48.033,60.837C48.095,60.742 48.18,60.662 48.262,60.614C48.303,60.59 48.341,60.572 48.37,60.561C48.399,60.55 48.419,60.546 48.419,60.546Z" fill="#f8cf50" fill-rule="nonzero"/><path d="M38.089,56.604C38.089,56.604 38.1,56.62 38.113,56.648C38.126,56.675 38.141,56.714 38.153,56.759C38.177,56.85 38.181,56.965 38.158,57.075C38.136,57.185 38.087,57.289 38.029,57.364C38,57.401 37.971,57.431 37.948,57.451C37.925,57.472 37.908,57.483 37.908,57.483C37.908,57.483 37.897,57.466 37.884,57.439C37.871,57.411 37.856,57.373 37.843,57.327C37.819,57.237 37.815,57.122 37.838,57.012C37.861,56.902 37.91,56.797 37.968,56.723C37.997,56.686 38.026,56.655 38.049,56.635C38.072,56.615 38.089,56.604 38.089,56.604Z" fill="#f8cf50" fill-rule="nonzero"/><path d="M36.605,60.164C36.605,60.164 36.616,60.18 36.629,60.208C36.642,60.235 36.657,60.274 36.669,60.319C36.693,60.41 36.697,60.525 36.675,60.635C36.652,60.745 36.603,60.849 36.545,60.924C36.516,60.961 36.487,60.991 36.463,61.011C36.441,61.032 36.424,61.043 36.424,61.043C36.424,61.043 36.413,61.026 36.4,60.999C36.386,60.971 36.371,60.932 36.359,60.887C36.335,60.796 36.332,60.681 36.354,60.571C36.377,60.461 36.427,60.357 36.484,60.283C36.513,60.245 36.542,60.215 36.566,60.195C36.588,60.175 36.605,60.164 36.605,60.164Z" fill="#f8cf50" fill-rule="nonzero"/><path d="M50.751,62.888C50.751,62.888 50.75,62.908 50.745,62.937C50.739,62.968 50.729,63.008 50.713,63.052C50.68,63.139 50.616,63.237 50.533,63.314C50.451,63.392 50.35,63.451 50.259,63.48C50.213,63.495 50.172,63.503 50.141,63.507C50.11,63.511 50.09,63.511 50.09,63.511C50.09,63.511 50.09,63.491 50.096,63.461C50.101,63.431 50.111,63.391 50.127,63.347C50.16,63.259 50.224,63.162 50.307,63.084C50.389,63.007 50.491,62.948 50.582,62.919C50.627,62.904 50.669,62.896 50.7,62.892C50.73,62.888 50.751,62.888 50.751,62.888Z" fill="#f8cf50" fill-rule="nonzero"/><path d="M43.864,69.146C43.864,69.146 43.864,69.166 43.858,69.196C43.853,69.226 43.843,69.266 43.826,69.31C43.794,69.398 43.73,69.495 43.648,69.573C43.565,69.651 43.464,69.709 43.373,69.738C43.328,69.753 43.286,69.761 43.255,69.765C43.224,69.769 43.204,69.769 43.204,69.769C43.204,69.769 43.205,69.749 43.21,69.72C43.215,69.689 43.225,69.649 43.241,69.605C43.274,69.517 43.338,69.42 43.421,69.343C43.503,69.265 43.605,69.206 43.696,69.177C43.741,69.163 43.782,69.154 43.813,69.151C43.844,69.146 43.864,69.146 43.864,69.146Z" fill="#f8cf50" fill-rule="nonzero"/><path d="M47.382,54.458C47.382,54.458 47.388,54.477 47.393,54.507C47.398,54.537 47.401,54.578 47.4,54.625C47.398,54.718 47.369,54.83 47.316,54.93C47.264,55.029 47.187,55.116 47.11,55.172C47.072,55.2 47.035,55.221 47.007,55.235C46.979,55.248 46.96,55.254 46.96,55.254C46.96,55.254 46.954,55.235 46.95,55.205C46.945,55.175 46.941,55.134 46.942,55.087C46.945,54.994 46.973,54.882 47.026,54.783C47.079,54.683 47.156,54.596 47.233,54.54C47.271,54.512 47.308,54.491 47.336,54.478C47.363,54.464 47.382,54.458 47.382,54.458Z" fill="#f8cf50" fill-rule="nonzero"/><path d="M43.04,53.22C43.04,53.22 43.046,53.239 43.05,53.269C43.055,53.299 43.059,53.34 43.057,53.387C43.055,53.48 43.026,53.592 42.974,53.692C42.921,53.791 42.845,53.879 42.768,53.934C42.729,53.962 42.693,53.983 42.665,53.997C42.637,54.01 42.618,54.016 42.618,54.016C42.618,54.016 42.612,53.997 42.607,53.967C42.602,53.937 42.599,53.896 42.6,53.849C42.602,53.756 42.631,53.644 42.684,53.545C42.737,53.445 42.813,53.358 42.89,53.302C42.928,53.274 42.965,53.253 42.993,53.239C43.02,53.226 43.04,53.22 43.04,53.22Z" fill="#f8cf50" fill-rule="nonzero"/></g></svg>