<?xml version="1.0" encoding="UTF-8" standalone="no"?>
<!DOCTYPE svg PUBLIC "-//W3C//DTD SVG 1.1//EN" "http://www.w3.org/Graphics/SVG/1.1/DTD/svg11.dtd">
<svg width="100%" height="100%" viewBox="0 0 512 512" version="1.1" xmlns="http://www.w3.org/2000/svg"  xml:space="preserve" style="fill-rule:evenodd;clip-rule:evenodd;stroke-linejoin:round;stroke-miterlimit:1.41421;">
    <rect id="Icon" x="0" y="0" width="512" height="512" style="fill:none;"/>
    <g id="Banana">
        <path d="M78.053,421.282C78.368,416.848 79.973,412.673 82.522,408.92C79.404,409.576 76.493,412.996 75.868,418.438C75.682,420.156 75.353,423.596 75.842,427.024C76.75,427.377 77.688,427.757 78.643,428.152C78.113,425.735 77.899,423.422 78.053,421.282Z" style="fill:#84583e;fill-rule:nonzero;"/>
        <path d="M78.643,428.152C81.58,429.376 84.729,430.817 88.127,432.51C88.494,429.921 91.607,412.238 86.019,409.38C84.899,408.802 83.698,408.67 82.522,408.92C79.973,412.673 78.368,416.848 78.053,421.282C77.899,423.422 78.113,425.735 78.643,428.152Z" style="fill:#84583e;fill-rule:nonzero;"/>
        <path d="M372.596,34.626C367.749,34.23 351.982,34.23 345.775,35.362C354.156,40.561 362.042,37.639 372.596,34.626Z" style="fill:#84583e;fill-rule:nonzero;"/>
        <path d="M372.596,34.626C372.302,41.848 371.65,48.142 370.881,53.654C371.868,48.162 372.596,44.123 372.596,34.626Z" style="fill:#84583e;fill-rule:nonzero;"/>
        <path d="M345.118,53.535C351.624,52.106 364.131,55.788 370.747,54.398C370.794,54.148 370.833,53.901 370.881,53.654C371.65,48.142 372.302,41.848 372.596,34.626C362.042,37.639 354.156,40.561 345.775,35.362C345.124,42.207 344.986,48.133 345.118,53.535Z" style="fill:#84583e;fill-rule:nonzero;"/>
        <path d="M305.455,208.939C297.52,247.74 271.53,314.093 239.215,339.315C191.575,376.438 173.46,377.34 109.671,391.894C93.419,395.441 79.065,407.026 78.053,421.282C76.89,437.608 96.434,463.927 123.966,469.711C174.108,479.743 164.499,478.25 220.186,475.844C275.941,473.385 320.091,454.34 351.991,428.297C384.246,401.905 404.248,368.523 420.017,329.317C425.481,312.667 440.902,259.856 435.149,211.899C430.461,165.083 415.894,118.355 374.865,94.744C358.832,85.521 371.007,73.837 372.596,34.626C362.042,37.639 354.156,40.561 345.775,35.362C342.402,70.072 351.331,77.515 337.059,107.255C326.084,130.124 311.529,180.174 305.455,208.939Z" style="fill:#f8cf50;fill-rule:nonzero;"/>
        <path d="M88.048,432.98C86.107,436.357 82.823,436.754 80.552,435.465C74.574,432.06 75.5,421.859 75.868,418.438C76.722,410.95 81.922,407.262 86.019,409.38C91.607,412.238 88.494,429.921 88.127,432.51C88.1,432.667 88.075,432.821 88.048,432.98Z" style="fill:#84583e;fill-rule:nonzero;"/>
        <path d="M345.775,35.362C345.124,42.207 344.986,48.133 345.118,53.535C351.624,52.106 364.131,55.788 370.747,54.398C371.805,48.506 372.596,44.55 372.596,34.626C367.749,34.23 351.982,34.23 345.775,35.362Z" style="fill:#84583e;fill-rule:nonzero;"/>
        <path d="M403.035,225.905C394.852,302.784 371.449,350.095 310.17,399.446C266.648,434.495 137.814,457.314 88.127,432.51C88.1,432.667 88.075,432.821 88.048,432.98C86.302,436.015 83.47,436.636 81.264,435.798C87.819,450.113 103.724,465.459 123.966,469.711C174.108,479.743 164.499,478.25 220.186,475.844C275.941,473.385 320.091,454.34 351.991,428.297C384.246,401.905 404.248,368.523 420.017,329.317C425.481,312.667 440.902,259.856 435.149,211.899C430.461,165.083 415.894,118.355 374.865,94.744C373.494,93.956 372.338,93.14 371.354,92.298L371.34,92.298C371.34,92.298 412.213,139.681 403.035,225.905Z" style="fill:#eebe29;fill-rule:nonzero;"/>
        <path d="M344.615,280.515C344.615,294.584 333.217,305.983 319.147,305.983C305.084,305.983 293.683,294.584 293.683,280.515C293.683,266.451 305.084,255.047 319.147,255.047C333.217,255.047 344.615,266.451 344.615,280.515Z" style="fill:#fff;fill-rule:nonzero;"/>
        <path d="M342.348,280.515C342.348,291.818 333.185,300.977 321.886,300.977C310.582,300.977 301.422,291.818 301.422,280.515C301.422,269.212 310.582,260.05 321.886,260.05C333.185,260.05 342.348,269.212 342.348,280.515Z" style="fill:#4b4443;fill-rule:nonzero;"/>
        <path d="M318.3,274.325C318.3,277.744 315.531,280.515 312.111,280.515C308.692,280.515 305.924,277.744 305.924,274.325C305.924,270.909 308.692,268.136 312.111,268.136C315.531,268.136 318.3,270.909 318.3,274.325Z" style="fill:#fff;fill-rule:nonzero;"/>
        <path d="M363.455,280.382C363.455,294.446 374.858,305.853 388.924,305.853C402.991,305.853 414.39,294.446 414.39,280.382C414.39,266.317 402.991,254.91 388.924,254.91C374.858,254.91 363.455,266.317 363.455,280.382Z" style="fill:#fff;fill-rule:nonzero;"/>
        <path d="M366.576,280.515C366.576,291.941 375.841,301.203 387.26,301.203C398.687,301.203 407.953,291.941 407.953,280.515C407.953,269.091 398.687,259.826 387.26,259.826C375.841,259.826 366.576,269.091 366.576,280.515Z" style="fill:#4b4443;fill-rule:nonzero;"/>
        <path d="M383.721,274.325C383.721,277.744 380.951,280.515 377.533,280.515C374.113,280.515 371.34,277.744 371.34,274.325C371.34,270.909 374.113,268.136 377.533,268.136C380.951,268.136 383.721,270.909 383.721,274.325Z" style="fill:#fff;fill-rule:nonzero;"/>
        <path d="M339.348,313.073C339.363,313.18 339.727,317.49 341.808,321.973C342.853,324.212 344.339,326.513 346.513,328.295C348.678,330.079 351.569,331.29 355.094,331.28C358.534,331.292 361.312,330.13 363.33,328.377C364.85,327.066 365.958,325.462 366.778,323.817C368.004,321.346 368.6,318.768 368.909,316.737C369.216,314.707 369.229,313.223 369.23,312.953L368.037,312.953L369.228,313.019L369.23,312.953L368.037,312.953L369.228,313.019C369.279,312.095 368.571,311.305 367.648,311.254C366.724,311.202 365.933,311.91 365.882,312.834L365.878,312.953C365.886,313.211 365.831,317.229 364.38,320.951C363.66,322.816 362.607,324.58 361.144,325.837C359.671,327.091 357.812,327.917 355.094,327.929C352.315,327.919 350.291,327.044 348.636,325.701C347.4,324.691 346.391,323.392 345.585,321.987C344.374,319.88 343.633,317.548 343.212,315.758C343.001,314.862 342.867,314.103 342.789,313.575C342.749,313.311 342.723,313.105 342.707,312.968L342.69,312.817L342.687,312.784L342.686,312.779C342.605,311.857 341.792,311.176 340.871,311.257C339.948,311.338 339.267,312.151 339.348,313.074L339.348,313.073Z" style="fill:#4b4443;fill-rule:nonzero;"/>
        <path d="M395.871,312.123C390.556,312.16 385.251,310.98 381.133,314.942C372.89,322.86 388.287,324.228 393.055,324.232C397.395,324.238 410.577,324.795 411.888,319.033C413.519,311.84 400.62,312.516 397.046,312.078L395.871,312.123Z" style="fill:#f09488;fill-rule:nonzero;"/>
        <path d="M310.909,312.123C305.598,312.16 300.291,310.98 296.173,314.942C287.929,322.86 303.327,324.228 308.095,324.232C312.432,324.238 325.617,324.795 326.924,319.033C328.556,311.84 315.659,312.516 312.088,312.078L310.909,312.123Z" style="fill:#f09488;fill-rule:nonzero;"/>
    </g>
    <g id="Strawberry">
        <path d="M258.411,271.476L258.428,271.446L257.981,271.244C233.735,260.654 210.625,262.621 199.903,290.926C222.317,306.957 245.019,293.095 258.411,271.476Z" style="fill:#a3a84d;fill-rule:nonzero;"/>
        <path d="M258.411,271.476C242.926,281.356 221.713,290.206 199.903,290.926C222.317,306.957 245.019,293.095 258.411,271.476Z" style="fill:#8c8c43;fill-rule:nonzero;"/>
        <path d="M157.065,222.06L157.07,222.035L157.514,222.245C181.035,234.374 194.088,253.546 178.898,279.72C152.314,272.449 148.743,246.087 157.065,222.06Z" style="fill:#a3a84d;fill-rule:nonzero;"/>
        <path d="M157.065,222.06C159.17,240.309 165.691,262.353 178.898,279.72C152.314,272.449 148.743,246.087 157.065,222.06Z" style="fill:#8c8c43;fill-rule:nonzero;"/>
        <path d="M221.845,219.959L221.838,219.926L221.369,220.084C196.407,228.861 180.842,246.052 192.285,274.067C219.614,270.52 226.778,244.906 221.845,219.959Z" style="fill:#a3a84d;fill-rule:nonzero;"/>
        <path d="M221.845,219.959C217.243,237.739 207.752,258.679 192.285,274.067C219.614,270.52 226.778,244.906 221.845,219.959Z" style="fill:#8c8c43;fill-rule:nonzero;"/>
        <path d="M254.498,252.909L254.52,252.882L254.064,252.678C229.817,242.087 206.714,244.061 195.994,272.36C218.407,288.392 241.109,274.532 254.498,252.909Z" style="fill:#a3a84d;fill-rule:nonzero;"/>
        <path d="M254.498,252.909C239.014,262.786 217.8,271.642 195.994,272.36C218.407,288.392 241.109,274.532 254.498,252.909Z" style="fill:#8c8c43;fill-rule:nonzero;"/>
        <path d="M173.785,214.524L173.796,214.494L174.238,214.715C197.754,226.839 210.809,246.008 195.621,272.184C169.038,264.913 165.464,238.555 173.785,214.524Z" style="fill:#a3a84d;fill-rule:nonzero;"/>
        <path d="M173.785,214.524C175.898,232.768 182.417,254.814 195.621,272.184C169.038,264.913 165.464,238.555 173.785,214.524Z" style="fill:#8c8c43;fill-rule:nonzero;"/>
        <path d="M188.583,239.162C207.915,244.584 254.94,274.448 258.407,293.715C263.384,321.289 224.078,352.619 205.782,368.369C192.072,380.174 165.754,396.599 144.02,390.998C122.502,385.454 119.836,349.488 117.785,331.282C115.003,306.545 122.067,274.313 127.169,258.367C136.432,229.423 164.903,231.524 185.528,238.176L188.583,239.162Z" style="fill:#df1e37;fill-rule:nonzero;"/>
        <path d="M144.02,390.998C165.754,396.599 192.072,380.174 205.782,368.369C224.078,352.619 263.384,321.289 258.407,293.715C257.928,291.027 256.591,288.13 254.606,285.125C254.606,285.125 261.542,305.774 212.372,349.794C207.305,354.322 168.004,390.3 140.04,389.533C141.288,390.141 142.613,390.636 144.02,390.998Z" style="fill:#ce233c;fill-rule:nonzero;"/>
        <path d="M160.275,332.913C160.257,332.972 159.389,335.279 159.384,338.073C159.385,339.435 159.593,340.926 160.261,342.319C160.926,343.712 162.081,344.989 163.832,345.816C164.907,346.328 165.959,346.558 166.945,346.557C168.327,346.558 169.561,346.111 170.597,345.476C172.153,344.519 173.306,343.151 174.095,342.026C174.88,340.899 175.296,340.006 175.312,339.972C175.528,339.505 175.325,338.951 174.858,338.735C174.392,338.519 173.838,338.722 173.623,339.188L173.618,339.196C173.557,339.327 172.848,340.772 171.653,342.13C171.057,342.809 170.341,343.463 169.548,343.933C168.752,344.404 167.892,344.694 166.945,344.695C166.244,344.694 165.482,344.537 164.633,344.133C163.256,343.473 162.453,342.564 161.94,341.511C161.432,340.46 161.245,339.244 161.246,338.073C161.246,336.873 161.441,335.728 161.638,334.895C161.736,334.477 161.834,334.137 161.906,333.906C161.943,333.789 161.973,333.701 161.992,333.643L162.015,333.578L162.021,333.564C162.2,333.082 161.955,332.545 161.473,332.366C160.99,332.187 160.454,332.432 160.275,332.913Z" style="fill:#4b4443;fill-rule:nonzero;"/>
        <path d="M193.14,347.964C190.463,346.71 188.083,344.855 185.068,345.858C179.039,347.865 186.443,352.226 188.836,353.37C191.014,354.403 197.493,357.83 199.528,355.254C202.066,352.033 195.432,349.291 193.741,348.22L193.14,347.964Z" style="fill:#f09488;fill-rule:nonzero;"/>
        <path d="M142.817,324.029C140.14,322.777 137.757,320.917 134.749,321.922C128.716,323.927 136.118,328.288 138.514,329.434C140.693,330.471 147.174,333.901 149.207,331.321C151.746,328.098 145.106,325.36 143.417,324.288L142.817,324.029Z" style="fill:#f09488;fill-rule:nonzero;"/>
        <path d="M204.367,345.803C204.383,345.746 206.295,340.891 206.303,335.7C206.302,333.691 206.015,331.619 205.162,329.75C204.316,327.881 202.865,326.227 200.677,325.193C199.388,324.579 198.106,324.298 196.877,324.299C194.796,324.3 192.909,325.087 191.284,326.201C188.843,327.88 186.926,330.307 185.586,332.316C184.249,334.328 183.503,335.927 183.49,335.956C183.269,336.429 183.473,336.992 183.947,337.212C184.419,337.432 184.981,337.228 185.201,336.755L185.213,336.731C185.348,336.445 186.674,333.727 188.796,331.138C189.854,329.842 191.111,328.584 192.484,327.67C193.861,326.753 195.333,326.189 196.877,326.189C197.822,326.19 198.809,326.397 199.866,326.899C201.646,327.751 202.74,329.005 203.444,330.534C204.143,332.06 204.415,333.872 204.414,335.7C204.415,338.063 203.964,340.436 203.508,342.206C203.28,343.09 203.053,343.826 202.884,344.335C202.799,344.59 202.728,344.789 202.68,344.922L202.624,345.073L202.607,345.117C202.417,345.603 202.657,346.151 203.144,346.341C203.63,346.53 204.177,346.29 204.367,345.804L204.367,345.803Z" style="fill:#4b4443;fill-rule:nonzero;"/>
        <path d="M139.107,314.92L139.12,314.896C139.276,314.624 140.806,312.034 143.146,309.56C144.315,308.324 145.685,307.119 147.163,306.241C148.642,305.359 150.211,304.811 151.816,304.812C152.836,304.812 153.879,305.027 154.972,305.547C156.575,306.314 157.56,307.377 158.198,308.652C158.829,309.925 159.089,311.434 159.088,313.008C159.09,315.442 158.467,318.002 157.835,319.934C157.519,320.899 157.203,321.71 156.968,322.275C156.85,322.558 156.752,322.779 156.684,322.927L156.607,323.096L156.583,323.146C156.355,323.616 156.551,324.181 157.021,324.409C157.491,324.636 158.056,324.44 158.284,323.97C158.296,323.942 158.962,322.566 159.631,320.52C160.297,318.471 160.975,315.756 160.977,313.008C160.976,311.234 160.692,309.436 159.89,307.813C159.092,306.191 157.751,304.771 155.784,303.841C154.45,303.204 153.108,302.921 151.816,302.922C149.708,302.923 147.756,303.661 146.033,304.716C143.448,306.302 141.333,308.61 139.837,310.522C138.344,312.436 137.48,313.959 137.464,313.987C137.205,314.441 137.365,315.017 137.819,315.275C138.273,315.532 138.849,315.373 139.107,314.92Z" style="fill:#4b4443;fill-rule:nonzero;"/>
        <path d="M230.269,283.574C230.269,283.574 230.318,283.691 230.364,283.87C230.411,284.05 230.454,284.293 230.468,284.563C230.494,285.099 230.355,285.71 230.049,286.218C229.742,286.727 229.267,287.134 228.778,287.359C228.534,287.471 228.298,287.545 228.115,287.587C227.935,287.629 227.808,287.639 227.808,287.639C227.808,287.639 227.759,287.522 227.713,287.343C227.665,287.162 227.621,286.919 227.607,286.65C227.58,286.112 227.72,285.503 228.029,284.996C228.337,284.488 228.814,284.082 229.301,283.857C229.547,283.745 229.782,283.67 229.964,283.629C230.144,283.585 230.269,283.574 230.269,283.574Z" style="fill:#f8cf50;fill-rule:nonzero;"/>
        <path d="M156.058,379.385C156.058,379.385 156.108,379.502 156.153,379.681C156.202,379.862 156.244,380.105 156.258,380.373C156.286,380.91 156.146,381.52 155.842,382.028C155.535,382.537 155.062,382.944 154.572,383.17C154.327,383.282 154.092,383.357 153.909,383.398C153.729,383.441 153.603,383.451 153.603,383.451C153.603,383.451 153.552,383.334 153.507,383.154C153.459,382.973 153.416,382.731 153.4,382.462C153.372,381.925 153.512,381.316 153.82,380.807C154.128,380.301 154.604,379.894 155.092,379.667C155.337,379.556 155.571,379.48 155.754,379.439C155.933,379.395 156.058,379.385 156.058,379.385Z" style="fill:#f8cf50;fill-rule:nonzero;"/>
        <path d="M157.943,360.337C157.943,360.337 157.993,360.454 158.038,360.633C158.085,360.813 158.128,361.056 158.143,361.325C158.17,361.862 158.03,362.473 157.725,362.981C157.418,363.49 156.945,363.897 156.455,364.121C156.21,364.234 155.975,364.307 155.792,364.349C155.612,364.392 155.486,364.402 155.486,364.402C155.486,364.402 155.436,364.285 155.391,364.105C155.342,363.925 155.299,363.682 155.284,363.413C155.256,362.875 155.397,362.266 155.705,361.759C156.013,361.251 156.489,360.845 156.977,360.62C157.221,360.507 157.457,360.433 157.638,360.391C157.818,360.348 157.943,360.337 157.943,360.337Z" style="fill:#f8cf50;fill-rule:nonzero;"/>
        <path d="M203.919,287.659C203.919,287.659 203.968,287.776 204.013,287.953C204.061,288.135 204.103,288.376 204.117,288.645C204.143,289.181 204.005,289.792 203.699,290.298C203.393,290.807 202.92,291.213 202.431,291.436C202.185,291.547 201.951,291.621 201.767,291.662C201.588,291.704 201.461,291.715 201.461,291.715C201.461,291.715 201.411,291.598 201.366,291.418C201.318,291.238 201.275,290.995 201.26,290.726C201.233,290.189 201.372,289.58 201.682,289.074C201.99,288.567 202.465,288.163 202.952,287.939C203.197,287.827 203.431,287.752 203.614,287.711C203.793,287.668 203.919,287.659 203.919,287.659Z" style="fill:#f8cf50;fill-rule:nonzero;"/>
        <path d="M186.212,272.556C186.212,272.556 186.261,272.672 186.306,272.852C186.355,273.033 186.397,273.275 186.411,273.544C186.44,274.081 186.302,274.69 185.996,275.199C185.69,275.708 185.217,276.115 184.728,276.34C184.484,276.453 184.248,276.528 184.066,276.569C183.886,276.612 183.759,276.621 183.759,276.621C183.759,276.621 183.708,276.504 183.663,276.325C183.615,276.144 183.571,275.902 183.557,275.634C183.528,275.095 183.667,274.486 183.976,273.979C184.282,273.472 184.757,273.066 185.245,272.839C185.49,272.727 185.724,272.652 185.907,272.61C186.086,272.566 186.212,272.556 186.212,272.556Z" style="fill:#f8cf50;fill-rule:nonzero;"/>
        <path d="M241.617,300.358C241.617,300.358 241.667,300.474 241.712,300.652C241.76,300.833 241.802,301.076 241.818,301.344C241.845,301.88 241.707,302.489 241.401,302.997C241.096,303.506 240.623,303.913 240.133,304.137C239.888,304.249 239.653,304.324 239.47,304.365C239.29,304.408 239.164,304.419 239.164,304.419C239.164,304.419 239.113,304.302 239.068,304.123C239.018,303.943 238.975,303.7 238.961,303.431C238.932,302.894 239.072,302.285 239.379,301.778C239.688,301.272 240.162,300.866 240.651,300.641C240.895,300.528 241.13,300.453 241.312,300.411C241.491,300.367 241.617,300.358 241.617,300.358Z" style="fill:#f8cf50;fill-rule:nonzero;"/>
        <path d="M217.759,344.061C217.759,344.061 217.808,344.177 217.852,344.355C217.9,344.537 217.944,344.779 217.958,345.047C217.985,345.585 217.848,346.194 217.541,346.702C217.235,347.211 216.761,347.619 216.274,347.843C216.029,347.955 215.794,348.029 215.61,348.07C215.431,348.114 215.304,348.124 215.304,348.124C215.304,348.124 215.254,348.007 215.208,347.827C215.16,347.647 215.117,347.404 215.102,347.135C215.073,346.597 215.212,345.988 215.521,345.481C215.83,344.974 216.305,344.568 216.792,344.343C217.037,344.23 217.271,344.156 217.453,344.114C217.633,344.07 217.759,344.061 217.759,344.061Z" style="fill:#f8cf50;fill-rule:nonzero;"/>
        <path d="M135.639,342.639C135.639,342.639 135.721,342.749 135.818,342.932C135.919,343.115 136.032,343.371 136.127,343.668C136.313,344.265 136.363,345.019 136.218,345.734C136.077,346.449 135.741,347.126 135.336,347.603C135.134,347.841 134.93,348.033 134.765,348.162C134.605,348.293 134.486,348.362 134.486,348.362C134.486,348.362 134.402,348.252 134.306,348.068C134.204,347.886 134.09,347.63 133.995,347.332C133.806,346.736 133.76,345.982 133.906,345.267C134.05,344.552 134.388,343.875 134.791,343.399C134.994,343.161 135.197,342.969 135.36,342.84C135.521,342.708 135.639,342.639 135.639,342.639Z" style="fill:#f8cf50;fill-rule:nonzero;"/>
        <path d="M148.723,252.121C148.723,252.121 148.808,252.216 148.911,252.371C149.017,252.528 149.139,252.747 149.242,252.999C149.448,253.505 149.521,254.139 149.404,254.735C149.286,255.332 148.977,255.889 148.591,256.276C148.397,256.469 148.201,256.623 148.042,256.726C147.887,256.831 147.771,256.885 147.771,256.885C147.771,256.885 147.685,256.79 147.582,256.634C147.475,256.477 147.353,256.26 147.25,256.007C147.042,255.5 146.97,254.866 147.09,254.271C147.211,253.676 147.523,253.118 147.907,252.731C148.1,252.538 148.296,252.384 148.453,252.279C148.608,252.176 148.723,252.121 148.723,252.121Z" style="fill:#f8cf50;fill-rule:nonzero;"/>
        <path d="M162.132,277.839C162.132,277.839 162.189,277.973 162.246,278.189C162.305,278.406 162.361,278.707 162.389,279.05C162.444,279.739 162.326,280.583 162.025,281.355C161.725,282.127 161.243,282.828 160.735,283.299C160.481,283.533 160.234,283.715 160.042,283.836C159.854,283.957 159.72,284.015 159.72,284.015C159.72,284.015 159.662,283.88 159.605,283.664C159.545,283.446 159.487,283.146 159.459,282.801C159.403,282.113 159.523,281.271 159.826,280.499C160.128,279.726 160.613,279.027 161.121,278.557C161.373,278.322 161.619,278.14 161.811,278.02C161.998,277.899 162.132,277.839 162.132,277.839Z" style="fill:#f8cf50;fill-rule:nonzero;"/>
        <path d="M138.912,363.912C138.912,363.912 138.969,364.047 139.025,364.263C139.084,364.48 139.141,364.78 139.169,365.125C139.224,365.814 139.105,366.656 138.804,367.427C138.505,368.199 138.022,368.899 137.513,369.366C137.26,369.601 137.014,369.783 136.821,369.902C136.633,370.023 136.499,370.081 136.499,370.081C136.499,370.081 136.441,369.947 136.384,369.73C136.325,369.512 136.267,369.212 136.24,368.867C136.184,368.178 136.304,367.337 136.606,366.565C136.909,365.795 137.394,365.096 137.901,364.628C138.155,364.394 138.399,364.212 138.59,364.092C138.779,363.971 138.912,363.912 138.912,363.912Z" style="fill:#f8cf50;fill-rule:nonzero;"/>
        <path d="M184.754,298.715C184.754,298.715 184.812,298.849 184.869,299.066C184.928,299.283 184.985,299.584 185.012,299.928C185.066,300.616 184.948,301.459 184.647,302.231C184.347,303.003 183.863,303.705 183.355,304.173C183.1,304.406 182.855,304.589 182.663,304.708C182.475,304.829 182.34,304.887 182.34,304.887C182.34,304.887 182.282,304.753 182.225,304.536C182.166,304.318 182.108,304.018 182.081,303.674C182.025,302.985 182.146,302.141 182.449,301.372C182.752,300.6 183.236,299.9 183.743,299.432C183.997,299.198 184.243,299.016 184.433,298.895C184.622,298.774 184.754,298.715 184.754,298.715Z" style="fill:#f8cf50;fill-rule:nonzero;"/>
        <path d="M215.675,304.355C215.675,304.355 215.707,304.497 215.717,304.721C215.733,304.946 215.728,305.251 215.687,305.594C215.602,306.28 215.319,307.083 214.87,307.781C214.422,308.478 213.808,309.07 213.216,309.429C212.921,309.608 212.644,309.737 212.432,309.817C212.222,309.898 212.079,309.929 212.079,309.929C212.079,309.929 212.048,309.786 212.037,309.562C212.021,309.337 212.024,309.032 212.066,308.688C212.149,308.002 212.435,307.198 212.885,306.503C213.335,305.807 213.951,305.216 214.541,304.857C214.837,304.678 215.114,304.547 215.325,304.468C215.534,304.387 215.675,304.355 215.675,304.355Z" style="fill:#f8cf50;fill-rule:nonzero;"/>
        <path d="M141.04,275.233C141.04,275.233 141.119,275.355 141.212,275.558C141.308,275.762 141.415,276.049 141.502,276.382C141.676,277.051 141.705,277.903 141.542,278.714C141.38,279.526 141.026,280.299 140.606,280.85C140.397,281.124 140.186,281.345 140.018,281.496C139.854,281.648 139.732,281.729 139.732,281.729C139.732,281.729 139.651,281.607 139.558,281.403C139.462,281.199 139.353,280.914 139.265,280.579C139.091,279.91 139.064,279.06 139.23,278.247C139.394,277.436 139.75,276.662 140.167,276.114C140.377,275.839 140.587,275.616 140.754,275.465C140.919,275.314 141.04,275.233 141.04,275.233Z" style="fill:#f8cf50;fill-rule:nonzero;"/>
        <path d="M130.319,301.531C130.319,301.531 130.399,301.653 130.491,301.857C130.587,302.06 130.695,302.346 130.782,302.681C130.954,303.35 130.983,304.201 130.82,305.012C130.658,305.825 130.303,306.598 129.884,307.145C129.674,307.42 129.463,307.641 129.295,307.792C129.13,307.944 129.008,308.025 129.008,308.025C129.008,308.025 128.928,307.903 128.834,307.7C128.738,307.495 128.63,307.208 128.543,306.873C128.369,306.205 128.342,305.354 128.507,304.543C128.672,303.731 129.028,302.959 129.446,302.41C129.656,302.136 129.866,301.915 130.034,301.764C130.198,301.613 130.319,301.531 130.319,301.531Z" style="fill:#f8cf50;fill-rule:nonzero;"/>
        <path d="M232.522,321.656C232.522,321.656 232.518,321.802 232.479,322.022C232.442,322.245 232.367,322.541 232.248,322.865C232.009,323.514 231.551,324.232 230.954,324.806C230.358,325.383 229.626,325.818 228.969,326.032C228.64,326.138 228.34,326.201 228.117,326.229C227.894,326.26 227.748,326.258 227.748,326.258C227.748,326.258 227.751,326.111 227.79,325.891C227.828,325.667 227.9,325.37 228.019,325.045C228.256,324.397 228.718,323.681 229.316,323.107C229.913,322.533 230.647,322.099 231.303,321.885C231.632,321.778 231.93,321.715 232.154,321.686C232.376,321.654 232.522,321.656 232.522,321.656Z" style="fill:#f8cf50;fill-rule:nonzero;"/>
        <path d="M182.767,367.889C182.767,367.889 182.763,368.034 182.724,368.255C182.688,368.476 182.614,368.773 182.494,369.098C182.257,369.746 181.799,370.462 181.203,371.037C180.607,371.613 179.876,372.048 179.219,372.261C178.891,372.369 178.591,372.432 178.367,372.46C178.145,372.491 177.999,372.489 177.999,372.489C177.999,372.489 178.002,372.343 178.04,372.122C178.077,371.899 178.15,371.603 178.268,371.277C178.505,370.629 178.965,369.913 179.562,369.34C180.159,368.766 180.892,368.332 181.549,368.117C181.878,368.011 182.176,367.947 182.399,367.919C182.621,367.887 182.767,367.889 182.767,367.889Z" style="fill:#f8cf50;fill-rule:nonzero;"/>
        <path d="M208.187,259.383C208.187,259.383 208.23,259.523 208.263,259.743C208.299,259.967 208.324,260.271 208.316,260.616C208.296,261.305 208.09,262.131 207.71,262.868C207.33,263.603 206.775,264.247 206.221,264.66C205.944,264.867 205.68,265.02 205.476,265.12C205.276,265.22 205.137,265.264 205.137,265.264C205.137,265.264 205.094,265.125 205.06,264.903C205.023,264.681 204.997,264.376 205.006,264.031C205.024,263.341 205.231,262.514 205.614,261.781C205.997,261.047 206.553,260.402 207.106,259.989C207.383,259.783 207.646,259.627 207.849,259.528C208.049,259.429 208.187,259.383 208.187,259.383Z" style="fill:#f8cf50;fill-rule:nonzero;"/>
        <path d="M176.809,250.237C176.809,250.237 176.852,250.376 176.886,250.597C176.922,250.819 176.946,251.124 176.937,251.469C176.92,252.159 176.714,252.986 176.334,253.722C175.954,254.457 175.4,255.103 174.846,255.516C174.568,255.722 174.306,255.877 174.102,255.977C173.901,256.076 173.762,256.121 173.762,256.121C173.762,256.121 173.717,255.981 173.685,255.76C173.648,255.536 173.623,255.232 173.63,254.887C173.648,254.196 173.856,253.371 174.237,252.636C174.619,251.902 175.175,251.257 175.728,250.844C176.005,250.638 176.268,250.482 176.471,250.382C176.67,250.282 176.809,250.237 176.809,250.237Z" style="fill:#f8cf50;fill-rule:nonzero;"/>
    </g>
</svg>
