<svg width="100%" height="100%" viewBox="0 0 108 108" version="1.1" xmlns="http://www.w3.org/2000/svg" xmlns:xlink="http://www.w3.org/1999/xlink" xml:space="preserve" fill-rule="evenodd" clip-rule="evenodd" stroke-linejoin="round" stroke-miterlimit="1.41421"><rect id="Icon_strawberry_108" x="0" y="0" width="108" height="108" fill="none"/><g id="Strawberry"><path d="M82.048,40.522L82.054,40.511L81.889,40.438C72.92,36.62 64.371,37.329 60.404,47.534C68.696,53.314 77.094,48.317 82.048,40.522Z" fill="#a3a84d" fill-rule="nonzero"/><path d="M82.048,40.522C76.32,44.084 68.472,47.275 60.404,47.534C68.696,53.314 77.094,48.317 82.048,40.522Z" fill="#8c8c43" fill-rule="nonzero"/><path d="M44.557,22.705L44.559,22.696L44.723,22.771C53.424,27.144 58.253,34.057 52.633,43.494C42.799,40.873 41.478,31.368 44.557,22.705Z" fill="#a3a84d" fill-rule="nonzero"/><path d="M44.557,22.705C45.335,29.284 47.748,37.232 52.633,43.494C42.799,40.873 41.478,31.368 44.557,22.705Z" fill="#8c8c43" fill-rule="nonzero"/><path d="M68.521,21.947L68.519,21.935L68.345,21.992C59.111,25.157 53.353,31.355 57.586,41.456C67.696,40.177 70.346,30.942 68.521,21.947Z" fill="#a3a84d" fill-rule="nonzero"/><path d="M68.521,21.947C66.819,28.358 63.307,35.908 57.586,41.456C67.696,40.177 70.346,30.942 68.521,21.947Z" fill="#8c8c43" fill-rule="nonzero"/><path d="M80.601,33.827L80.609,33.818L80.44,33.744C71.47,29.925 62.924,30.637 58.958,40.841C67.249,46.621 75.648,41.623 80.601,33.827Z" fill="#a3a84d" fill-rule="nonzero"/><path d="M80.601,33.827C74.872,37.389 67.025,40.582 58.958,40.841C67.249,46.621 75.648,41.623 80.601,33.827Z" fill="#8c8c43" fill-rule="nonzero"/><path d="M50.742,19.988L50.746,19.977L50.91,20.056C59.609,24.428 64.439,31.339 58.82,40.777C48.986,38.155 47.664,28.652 50.742,19.988Z" fill="#a3a84d" fill-rule="nonzero"/><path d="M50.742,19.988C51.524,26.565 53.935,34.514 58.82,40.777C48.986,38.155 47.664,28.652 50.742,19.988Z" fill="#8c8c43" fill-rule="nonzero"/><path d="M56.216,28.871C63.368,30.826 80.764,41.593 82.047,48.54C83.888,58.482 69.347,69.778 62.579,75.457C57.507,79.713 47.771,85.635 39.731,83.616C31.771,81.617 30.784,68.649 30.026,62.085C28.996,53.166 31.61,41.545 33.497,35.795C36.924,25.359 47.456,26.117 55.086,28.515L56.216,28.871Z" fill="#df1e37" fill-rule="nonzero"/><path d="M39.731,83.616C47.771,85.635 57.507,79.713 62.579,75.457C69.347,69.778 83.888,58.482 82.047,48.54C81.87,47.571 81.375,46.526 80.641,45.443C80.641,45.443 83.207,52.888 65.017,68.759C63.142,70.392 48.603,83.364 38.259,83.087C38.72,83.307 39.21,83.485 39.731,83.616Z" fill="#ce233c" fill-rule="nonzero"/><path d="M45.744,62.673C45.737,62.694 45.416,63.526 45.415,64.533C45.415,65.024 45.492,65.562 45.739,66.064C45.985,66.567 46.412,67.027 47.06,67.325C47.458,67.51 47.847,67.593 48.212,67.592C48.723,67.593 49.179,67.432 49.563,67.203C50.138,66.858 50.565,66.364 50.857,65.959C51.147,65.552 51.301,65.23 51.307,65.218C51.387,65.05 51.312,64.85 51.139,64.772C50.967,64.694 50.762,64.767 50.682,64.935L50.68,64.938C50.658,64.986 50.395,65.507 49.953,65.996C49.733,66.241 49.468,66.477 49.175,66.646C48.88,66.816 48.562,66.92 48.212,66.921C47.952,66.92 47.671,66.864 47.356,66.718C46.847,66.48 46.55,66.153 46.36,65.773C46.172,65.394 46.103,64.956 46.104,64.533C46.104,64.101 46.176,63.688 46.249,63.388C46.285,63.237 46.321,63.114 46.348,63.031C46.361,62.989 46.372,62.957 46.38,62.936L46.388,62.913L46.39,62.908C46.456,62.734 46.366,62.54 46.187,62.476C46.009,62.411 45.81,62.499 45.744,62.673Z" fill="#4b4443" fill-rule="nonzero"/><path d="M57.902,68.1C56.912,67.647 56.031,66.979 54.916,67.34C52.686,68.064 55.425,69.636 56.31,70.049C57.116,70.421 59.513,71.657 60.265,70.728C61.204,69.567 58.75,68.578 58.125,68.192L57.902,68.1Z" fill="#f09488" fill-rule="nonzero"/><path d="M39.286,59.47C38.296,59.018 37.414,58.348 36.301,58.71C34.069,59.433 36.808,61.005 37.694,61.419C38.5,61.793 40.898,63.029 41.65,62.099C42.589,60.937 40.132,59.95 39.508,59.563L39.286,59.47Z" fill="#f09488" fill-rule="nonzero"/><path d="M62.055,67.321C62.061,67.3 62.769,65.549 62.772,63.678C62.771,62.954 62.665,62.206 62.35,61.532C62.036,60.859 61.5,60.262 60.69,59.89C60.213,59.668 59.739,59.567 59.285,59.567C58.515,59.568 57.817,59.851 57.215,60.253C56.313,60.858 55.603,61.733 55.107,62.458C54.613,63.183 54.337,63.76 54.332,63.77C54.251,63.941 54.326,64.144 54.501,64.223C54.676,64.302 54.884,64.229 54.965,64.058L54.97,64.049C55.019,63.946 55.51,62.966 56.295,62.033C56.687,61.566 57.152,61.112 57.66,60.783C58.169,60.452 58.713,60.249 59.285,60.249C59.634,60.249 59.999,60.324 60.39,60.505C61.049,60.812 61.453,61.264 61.714,61.815C61.973,62.365 62.073,63.019 62.073,63.678C62.073,64.53 61.906,65.385 61.738,66.024C61.653,66.342 61.569,66.608 61.507,66.791C61.475,66.883 61.449,66.955 61.431,67.003L61.411,67.057L61.404,67.073C61.334,67.248 61.423,67.446 61.603,67.515C61.783,67.583 61.985,67.496 62.055,67.321L62.055,67.321Z" fill="#4b4443" fill-rule="nonzero"/><path d="M37.913,56.185L37.918,56.177C37.976,56.079 38.542,55.145 39.408,54.253C39.84,53.807 40.347,53.373 40.893,53.056C41.441,52.738 42.021,52.541 42.615,52.541C42.992,52.541 43.378,52.619 43.782,52.806C44.375,53.083 44.74,53.466 44.976,53.925C45.209,54.385 45.305,54.929 45.305,55.496C45.306,56.374 45.075,57.297 44.841,57.993C44.725,58.341 44.608,58.634 44.521,58.837C44.477,58.939 44.441,59.019 44.416,59.073L44.387,59.133L44.378,59.151C44.294,59.321 44.367,59.525 44.54,59.607C44.714,59.689 44.923,59.618 45.008,59.449C45.012,59.438 45.258,58.942 45.506,58.205C45.752,57.466 46.003,56.487 46.004,55.496C46.003,54.857 45.898,54.208 45.602,53.623C45.306,53.038 44.81,52.526 44.083,52.191C43.589,51.961 43.093,51.859 42.615,51.86C41.835,51.86 41.113,52.126 40.476,52.506C39.519,53.078 38.737,53.91 38.184,54.6C37.631,55.29 37.312,55.839 37.305,55.849C37.21,56.013 37.269,56.221 37.437,56.313C37.605,56.406 37.818,56.349 37.913,56.185Z" fill="#4b4443" fill-rule="nonzero"/><path d="M71.637,44.884C71.637,44.884 71.656,44.926 71.672,44.991C71.69,45.055 71.706,45.143 71.711,45.24C71.721,45.434 71.669,45.654 71.556,45.837C71.443,46.02 71.267,46.167 71.086,46.248C70.996,46.289 70.908,46.316 70.841,46.331C70.774,46.346 70.727,46.349 70.727,46.349C70.727,46.349 70.709,46.307 70.692,46.243C70.674,46.177 70.658,46.09 70.653,45.993C70.643,45.799 70.695,45.579 70.809,45.396C70.923,45.213 71.099,45.067 71.279,44.986C71.37,44.945 71.457,44.918 71.525,44.903C71.591,44.888 71.637,44.884 71.637,44.884Z" fill="#f8cf50" fill-rule="nonzero"/><path d="M44.184,79.428C44.184,79.428 44.203,79.471 44.219,79.535C44.237,79.6 44.253,79.688 44.258,79.785C44.268,79.978 44.217,80.198 44.104,80.381C43.991,80.565 43.816,80.712 43.635,80.793C43.544,80.834 43.457,80.86 43.389,80.875C43.323,80.891 43.276,80.895 43.276,80.895C43.276,80.895 43.257,80.852 43.24,80.788C43.223,80.722 43.207,80.635 43.201,80.538C43.191,80.344 43.242,80.125 43.356,79.941C43.47,79.759 43.646,79.612 43.827,79.53C43.917,79.49 44.004,79.463 44.072,79.448C44.138,79.432 44.184,79.428 44.184,79.428Z" fill="#f8cf50" fill-rule="nonzero"/><path d="M44.882,72.561C44.882,72.561 44.9,72.603 44.917,72.668C44.934,72.732 44.95,72.82 44.955,72.917C44.965,73.111 44.914,73.331 44.801,73.514C44.687,73.697 44.512,73.844 44.331,73.925C44.241,73.966 44.154,73.992 44.086,74.007C44.019,74.023 43.972,74.026 43.972,74.026C43.972,74.026 43.954,73.984 43.937,73.919C43.919,73.854 43.903,73.767 43.898,73.67C43.888,73.476 43.939,73.256 44.054,73.073C44.167,72.89 44.344,72.744 44.524,72.663C44.615,72.622 44.702,72.595 44.769,72.58C44.835,72.565 44.882,72.561 44.882,72.561Z" fill="#f8cf50" fill-rule="nonzero"/><path d="M61.89,46.356C61.89,46.356 61.908,46.399 61.924,46.462C61.942,46.528 61.958,46.615 61.963,46.712C61.973,46.905 61.922,47.126 61.808,47.308C61.695,47.492 61.52,47.638 61.339,47.718C61.248,47.758 61.162,47.785 61.094,47.8C61.027,47.815 60.981,47.819 60.981,47.819C60.981,47.819 60.962,47.777 60.945,47.712C60.928,47.647 60.911,47.559 60.906,47.462C60.896,47.269 60.948,47.049 61.062,46.867C61.176,46.684 61.352,46.538 61.532,46.458C61.623,46.417 61.709,46.39 61.777,46.375C61.843,46.36 61.89,46.356 61.89,46.356Z" fill="#f8cf50" fill-rule="nonzero"/><path d="M55.339,40.911C55.339,40.911 55.357,40.953 55.374,41.018C55.392,41.083 55.408,41.17 55.413,41.267C55.424,41.461 55.372,41.681 55.259,41.864C55.146,42.048 54.971,42.194 54.79,42.275C54.7,42.316 54.613,42.343 54.545,42.358C54.479,42.373 54.432,42.377 54.432,42.377C54.432,42.377 54.413,42.335 54.396,42.27C54.378,42.205 54.362,42.117 54.357,42.021C54.346,41.826 54.398,41.607 54.512,41.424C54.625,41.241 54.801,41.095 54.982,41.013C55.072,40.973 55.159,40.946 55.226,40.931C55.293,40.915 55.339,40.911 55.339,40.911Z" fill="#f8cf50" fill-rule="nonzero"/><path d="M75.836,50.935C75.836,50.935 75.854,50.977 75.871,51.041C75.888,51.106 75.904,51.194 75.91,51.291C75.92,51.484 75.869,51.704 75.755,51.887C75.643,52.07 75.468,52.217 75.287,52.298C75.196,52.338 75.109,52.365 75.041,52.38C74.975,52.395 74.928,52.399 74.928,52.399C74.928,52.399 74.909,52.357 74.892,52.292C74.874,52.228 74.858,52.14 74.853,52.043C74.842,51.849 74.894,51.63 75.008,51.447C75.122,51.265 75.297,51.118 75.478,51.037C75.569,50.996 75.655,50.969 75.723,50.954C75.789,50.939 75.836,50.935 75.836,50.935Z" fill="#f8cf50" fill-rule="nonzero"/><path d="M67.01,66.692C67.01,66.692 67.028,66.734 67.044,66.798C67.062,66.864 67.078,66.951 67.083,67.048C67.093,67.242 67.043,67.462 66.929,67.645C66.816,67.828 66.641,67.975 66.46,68.056C66.37,68.096 66.283,68.123 66.215,68.138C66.148,68.154 66.102,68.157 66.102,68.157C66.102,68.157 66.083,68.115 66.066,68.05C66.048,67.985 66.032,67.898 66.027,67.801C66.016,67.607 66.068,67.387 66.182,67.204C66.296,67.022 66.472,66.875 66.652,66.794C66.743,66.753 66.829,66.726 66.897,66.711C66.963,66.696 67.01,66.692 67.01,66.692Z" fill="#f8cf50" fill-rule="nonzero"/><path d="M36.63,66.18C36.63,66.18 36.661,66.219 36.697,66.285C36.734,66.351 36.776,66.444 36.811,66.551C36.88,66.766 36.898,67.038 36.845,67.295C36.793,67.553 36.668,67.797 36.518,67.969C36.444,68.055 36.368,68.124 36.307,68.171C36.248,68.218 36.204,68.243 36.204,68.243C36.204,68.243 36.173,68.204 36.137,68.137C36.1,68.071 36.057,67.979 36.022,67.872C35.952,67.657 35.935,67.385 35.989,67.127C36.043,66.87 36.168,66.625 36.317,66.454C36.392,66.368 36.467,66.299 36.527,66.252C36.587,66.205 36.63,66.18 36.63,66.18Z" fill="#f8cf50" fill-rule="nonzero"/><path d="M41.471,33.543C41.471,33.543 41.502,33.577 41.54,33.633C41.58,33.69 41.625,33.769 41.663,33.86C41.739,34.042 41.766,34.271 41.723,34.486C41.679,34.701 41.565,34.902 41.422,35.041C41.35,35.111 41.278,35.166 41.219,35.204C41.162,35.241 41.119,35.261 41.119,35.261C41.119,35.261 41.087,35.227 41.048,35.17C41.009,35.114 40.964,35.036 40.926,34.944C40.849,34.761 40.822,34.533 40.867,34.318C40.911,34.104 41.027,33.903 41.169,33.763C41.24,33.693 41.313,33.638 41.371,33.6C41.428,33.563 41.471,33.543 41.471,33.543Z" fill="#f8cf50" fill-rule="nonzero"/><path d="M46.431,42.816C46.431,42.816 46.452,42.864 46.473,42.942C46.495,43.02 46.516,43.129 46.526,43.253C46.547,43.501 46.503,43.805 46.392,44.084C46.281,44.362 46.102,44.615 45.914,44.784C45.82,44.869 45.729,44.934 45.658,44.978C45.589,45.022 45.539,45.043 45.539,45.043C45.539,45.043 45.517,44.994 45.496,44.916C45.474,44.837 45.453,44.729 45.442,44.605C45.422,44.357 45.466,44.053 45.578,43.775C45.69,43.496 45.869,43.244 46.057,43.075C46.15,42.99 46.241,42.924 46.312,42.881C46.382,42.837 46.431,42.816 46.431,42.816Z" fill="#f8cf50" fill-rule="nonzero"/><path d="M37.841,73.85C37.841,73.85 37.862,73.898 37.883,73.976C37.905,74.055 37.926,74.163 37.936,74.287C37.957,74.535 37.913,74.839 37.801,75.117C37.691,75.395 37.512,75.648 37.324,75.816C37.23,75.901 37.139,75.966 37.068,76.009C36.998,76.053 36.949,76.074 36.949,76.074C36.949,76.074 36.927,76.026 36.906,75.947C36.884,75.869 36.863,75.761 36.853,75.636C36.832,75.388 36.876,75.084 36.988,74.806C37.1,74.529 37.28,74.276 37.467,74.108C37.561,74.024 37.652,73.958 37.722,73.915C37.792,73.871 37.841,73.85 37.841,73.85Z" fill="#f8cf50" fill-rule="nonzero"/><path d="M54.8,50.343C54.8,50.343 54.822,50.391 54.842,50.469C54.864,50.548 54.885,50.656 54.895,50.78C54.915,51.028 54.872,51.332 54.76,51.61C54.649,51.889 54.47,52.142 54.282,52.311C54.188,52.395 54.097,52.461 54.026,52.504C53.957,52.547 53.907,52.568 53.907,52.568C53.907,52.568 53.885,52.52 53.864,52.441C53.843,52.363 53.821,52.255 53.811,52.131C53.79,51.882 53.835,51.578 53.947,51.301C54.059,51.022 54.238,50.77 54.426,50.601C54.52,50.517 54.611,50.451 54.681,50.408C54.751,50.364 54.8,50.343 54.8,50.343Z" fill="#f8cf50" fill-rule="nonzero"/><path d="M66.239,52.376C66.239,52.376 66.25,52.428 66.254,52.508C66.26,52.589 66.258,52.699 66.243,52.823C66.212,53.07 66.107,53.36 65.941,53.612C65.775,53.863 65.548,54.076 65.329,54.206C65.22,54.27 65.117,54.317 65.039,54.346C64.961,54.375 64.909,54.386 64.909,54.386C64.909,54.386 64.897,54.334 64.893,54.254C64.887,54.172 64.888,54.063 64.904,53.938C64.934,53.691 65.04,53.402 65.207,53.151C65.373,52.9 65.601,52.687 65.819,52.557C65.929,52.493 66.031,52.446 66.109,52.417C66.186,52.388 66.239,52.376 66.239,52.376Z" fill="#f8cf50" fill-rule="nonzero"/><path d="M38.628,41.876C38.628,41.876 38.658,41.92 38.692,41.994C38.728,42.067 38.767,42.17 38.8,42.29C38.864,42.532 38.874,42.839 38.814,43.131C38.754,43.424 38.623,43.703 38.468,43.901C38.391,44 38.313,44.08 38.25,44.134C38.19,44.189 38.144,44.219 38.144,44.219C38.144,44.219 38.115,44.175 38.08,44.101C38.045,44.027 38.005,43.924 37.972,43.804C37.908,43.563 37.898,43.256 37.959,42.963C38.02,42.671 38.151,42.392 38.306,42.194C38.383,42.095 38.461,42.014 38.523,41.96C38.584,41.906 38.628,41.876 38.628,41.876Z" fill="#f8cf50" fill-rule="nonzero"/><path d="M34.662,51.358C34.662,51.358 34.692,51.402 34.726,51.475C34.762,51.549 34.801,51.652 34.834,51.773C34.897,52.014 34.908,52.321 34.848,52.613C34.788,52.906 34.656,53.185 34.501,53.382C34.424,53.481 34.346,53.561 34.283,53.615C34.223,53.67 34.177,53.699 34.177,53.699C34.177,53.699 34.148,53.655 34.113,53.582C34.078,53.508 34.038,53.405 34.005,53.284C33.941,53.043 33.931,52.737 33.992,52.444C34.053,52.151 34.185,51.873 34.34,51.675C34.417,51.576 34.495,51.496 34.557,51.442C34.618,51.388 34.662,51.358 34.662,51.358Z" fill="#f8cf50" fill-rule="nonzero"/><path d="M72.471,58.614C72.471,58.614 72.47,58.667 72.455,58.746C72.441,58.827 72.414,58.933 72.37,59.05C72.281,59.284 72.112,59.543 71.891,59.75C71.67,59.958 71.4,60.115 71.157,60.192C71.035,60.23 70.924,60.253 70.841,60.263C70.759,60.274 70.705,60.273 70.705,60.273C70.705,60.273 70.706,60.221 70.72,60.141C70.734,60.061 70.761,59.953 70.805,59.836C70.893,59.602 71.064,59.344 71.285,59.137C71.506,58.931 71.777,58.774 72.02,58.697C72.142,58.658 72.252,58.635 72.335,58.625C72.417,58.613 72.471,58.614 72.471,58.614Z" fill="#f8cf50" fill-rule="nonzero"/><path d="M54.065,75.284C54.065,75.284 54.063,75.336 54.049,75.415C54.035,75.495 54.008,75.602 53.964,75.719C53.876,75.953 53.707,76.211 53.486,76.419C53.266,76.626 52.995,76.783 52.752,76.86C52.631,76.899 52.52,76.921 52.437,76.932C52.355,76.943 52.301,76.942 52.301,76.942C52.301,76.942 52.302,76.889 52.316,76.81C52.33,76.729 52.357,76.623 52.4,76.505C52.488,76.272 52.658,76.013 52.879,75.807C53.1,75.6 53.371,75.443 53.614,75.366C53.736,75.328 53.846,75.305 53.929,75.294C54.011,75.283 54.065,75.284 54.065,75.284Z" fill="#f8cf50" fill-rule="nonzero"/><path d="M63.469,36.162C63.469,36.162 63.485,36.212 63.497,36.291C63.51,36.372 63.519,36.482 63.516,36.606C63.509,36.854 63.433,37.152 63.292,37.418C63.151,37.683 62.946,37.915 62.741,38.064C62.639,38.139 62.541,38.194 62.466,38.23C62.392,38.266 62.34,38.282 62.34,38.282C62.34,38.282 62.324,38.232 62.312,38.152C62.298,38.072 62.288,37.962 62.292,37.837C62.298,37.588 62.375,37.291 62.517,37.026C62.659,36.761 62.864,36.529 63.069,36.38C63.171,36.306 63.268,36.25 63.344,36.214C63.417,36.178 63.469,36.162 63.469,36.162Z" fill="#f8cf50" fill-rule="nonzero"/><path d="M51.861,32.864C51.861,32.864 51.877,32.914 51.889,32.994C51.903,33.074 51.911,33.184 51.908,33.308C51.902,33.557 51.826,33.855 51.685,34.12C51.545,34.386 51.339,34.618 51.134,34.767C51.032,34.842 50.935,34.897 50.859,34.933C50.785,34.969 50.734,34.985 50.734,34.985C50.734,34.985 50.717,34.935 50.705,34.855C50.691,34.775 50.682,34.665 50.685,34.541C50.691,34.291 50.768,33.994 50.909,33.729C51.051,33.464 51.256,33.232 51.461,33.083C51.563,33.008 51.661,32.952 51.736,32.916C51.809,32.88 51.861,32.864 51.861,32.864Z" fill="#f8cf50" fill-rule="nonzero"/></g></svg>